<?xml version="1.0" encoding="utf-8"?>
<!-- Generator: Adobe Illustrator 16.0.0, SVG Export Plug-In . SVG Version: 6.00 Build 0)  -->
<!DOCTYPE svg PUBLIC "-//W3C//DTD SVG 1.1//EN" "http://www.w3.org/Graphics/SVG/1.1/DTD/svg11.dtd">
<svg version="1.1" id="Layer_1" xmlns="http://www.w3.org/2000/svg" xmlns:xlink="http://www.w3.org/1999/xlink" x="0px" y="0px"
	 width="1417.32px" height="1417.32px" viewBox="0 0 1417.32 1417.32" enable-background="new 0 0 1417.32 1417.32"
	 xml:space="preserve">
<rect fill="#C61130" width="1417.322" height="1417.322"/>
<g>
	<path fill="#FFFFFF" d="M515.984,551.017l-70.064,70.061v245.229h70.064V743.693h105.098v122.613h70.064v-315.29H515.984z
		 M621.082,673.629H515.984v-52.548h105.098V673.629z"/>
	<polygon fill="#FFFFFF" points="340.823,551.017 340.823,673.629 235.727,673.629 235.727,551.017 165.662,621.078 
		165.662,866.307 235.727,866.307 235.727,743.693 340.823,743.693 340.823,866.307 410.887,866.307 410.887,551.017 	"/>
	<polygon fill="#FFFFFF" points="1251.66,621.081 1251.66,551.017 1006.436,551.017 1006.436,866.307 1076.5,866.307 
		1076.5,743.693 1181.596,743.693 1251.66,673.629 1076.5,673.629 1076.5,621.081 	"/>
	<polygon fill="#FFFFFF" points="971.403,621.081 971.403,551.017 726.177,551.017 726.177,866.307 796.241,866.307 
		796.241,743.693 901.339,743.693 971.403,673.629 796.241,673.629 796.241,621.081 	"/>
</g>
</svg>
