<?xml version="1.0" encoding="utf-8"?>
<!-- Generator: Adobe Illustrator 16.0.0, SVG Export Plug-In . SVG Version: 6.00 Build 0)  -->
<!DOCTYPE svg PUBLIC "-//W3C//DTD SVG 1.1//EN" "http://www.w3.org/Graphics/SVG/1.1/DTD/svg11.dtd">
<svg version="1.1" id="Layer_1" xmlns="http://www.w3.org/2000/svg" xmlns:xlink="http://www.w3.org/1999/xlink" x="0px" y="0px"
	 width="566.93px" height="566.93px" viewBox="0 0 566.93 566.93" enable-background="new 0 0 566.93 566.93" xml:space="preserve">
<polygon fill="#DC1431" stroke="#000000" stroke-miterlimit="10" points="276.041,236.19 267.597,234.953 263.692,240.906 
	275.105,242.579 "/>
<polygon fill="#DC1431" stroke="#000000" stroke-miterlimit="10" points="288.82,238.063 297.819,239.383 299.277,246.123 
	287.884,244.452 "/>
<polygon fill="#DC1431" stroke="#000000" stroke-miterlimit="10" points="285.543,260.424 299.8,262.514 300.789,269.184 
	284.605,266.812 "/>
<polyline fill="#DC1431" stroke="#000000" stroke-miterlimit="10" points="303.16,298.898 280.392,295.561 281.329,289.171 
	302.197,292.23 "/>
<polygon fill="#DC1431" stroke="#000000" stroke-miterlimit="10" points="272.764,258.55 258.378,256.442 255.984,262.616 
	271.828,264.939 "/>
<polygon fill="#DC1431" stroke="#000000" stroke-miterlimit="10" points="267.614,293.688 268.551,287.294 246.339,284.038 
	242.538,290.011 "/>
<polyline fill="#DC1431" stroke="#000000" stroke-miterlimit="10" points="305.592,322.095 277.115,317.919 276.179,324.31 
	286.399,325.808 290.025,407.909 264.474,404.164 263.538,410.552 315.67,418.194 "/>
<polygon fill="#DC1431" stroke="#000000" stroke-miterlimit="10" points="264.336,316.047 235.768,311.858 198.452,401.012 
	250.758,408.68 251.695,402.29 226.142,398.546 253.18,320.938 263.399,322.437 "/>
<polyline fill="#DC1431" stroke="#000000" stroke-miterlimit="10" points="318.447,444.701 259.792,436.104 260.728,429.717 
	317.753,438.076 "/>
<polygon fill="#DC1431" stroke="#000000" stroke-miterlimit="10" points="247.95,427.845 190.732,419.459 188.159,425.605 
	247.013,434.231 "/>
<path fill="#DC1431" stroke="#000000" stroke-miterlimit="10" d="M256.046,461.659"/>
<polyline fill="#DC1431" stroke="#000000" stroke-miterlimit="10" points="321.228,471.214 256.046,461.659 255.109,468.049 
	321.922,477.843 "/>
<polygon fill="#DC1431" stroke="#000000" stroke-miterlimit="10" points="243.268,459.786 177.869,450.2 175.29,456.35 
	242.331,466.177 "/>
<path id="fill" fill="#DC1431" d="M365.117,563.421l4.816-32.862c-81.211-66.562-159.834-78.086-255.537-37.455l-10.3,70.272
	L365.117,563.421z"/>
<path fill="#FFFFFF" d="M332.49,563.415l5.033-34.344l-24.064-36.155c0,0-26.324-12.707-46.475-16.847l22.627,45.979l-6.064,41.371
	L332.49,563.415z"/>
<path fill="#FFFFFF" d="M143.25,563.38l9.477-64.658l26.643-25.937c31.255-4.293,49.306-3.003,49.306-3.003l-28.095,36.369
	l-8.394,57.27L143.25,563.38z"/>
<polyline fill="none" stroke="#000000" stroke-miterlimit="10" points="313.459,492.916 337.523,529.071 332.49,563.415 
	283.549,563.406 289.611,522.049 266.984,476.069 "/>
<path fill="#FFFFFF" stroke="#000000" stroke-miterlimit="10" d="M228.751,469.793l-28.17,36.358l-8.39,57.24l-48.94-0.01
	l9.477-64.66l26.643-25.937"/>
<polygon fill="#DC1431" points="252.301,487.213 291.596,219.124 294.844,219.6 324.076,498.386 339.135,507.896 309.158,219.51 
	300.766,192.177 277.767,188.806 261.884,212.58 150.04,479.973 167.142,475.633 275.706,216.564 278.856,216.987 239.522,485.341 
	"/>
<path id="outer_x5F_frame_1_" fill="none" stroke="#000000" stroke-miterlimit="10" d="M365.117,563.421l4.816-32.862
	c-81.211-66.562-159.835-78.086-255.537-37.455l-10.3,70.272L365.117,563.421z"/>
<rect id="middle_x5F_leg_x5F_fix" x="241.533" y="468.818" transform="matrix(-0.9894 -0.145 0.145 -0.9894 424.931 975.1471)" fill="#DC1431" width="12.915" height="6.55"/>
<polyline fill="none" stroke="#000000" stroke-miterlimit="10" points="339.135,507.896 309.158,219.51 300.766,192.177 
	277.767,188.806 261.884,212.58 150.04,479.973 "/>
<polyline fill="none" stroke="#000000" stroke-miterlimit="10" points="167.559,475.443 275.657,216.557 278.851,217.025 
	239.522,485.341 252.301,487.213 291.629,218.898 294.822,219.367 324.076,498.386 "/>
<rect x="207.34" y="195.568" transform="matrix(0.9894 0.145 -0.145 0.9894 31.8766 -39.6736)" fill="#DC1431" stroke="#000000" stroke-miterlimit="10" width="161.417" height="6.455"/>
<polygon fill="none" points="270.234,235.623 272.856,236.007 271.919,242.4 267.549,241.759 "/>
<circle fill="#DC1431" stroke="#000000" stroke-miterlimit="10" cx="312.152" cy="34.356" r="30.045"/>
<line fill="none" stroke="#000000" stroke-width="2" stroke-miterlimit="10" x1="301.627" y1="106.164" x2="307.795" y2="64.085"/>
<path fill="none" stroke="#000000" stroke-miterlimit="10" d="M316.471,289.8c0,0,32.654-62.474,36.4-88.028
	c2.715-18.526,20.752-85.055-51.244-95.608c-71.998-10.553-73.811,58.354-76.527,76.88c-3.746,25.554,9.503,94.756,9.503,94.756"/>
<polygon fill="#FFFFFF" stroke="#000000" stroke-miterlimit="10" points="291.701,173.881 451.285,207.061 461.804,202.078 
	453.158,194.284 "/>
<polygon fill="#FFFFFF" stroke="#000000" stroke-miterlimit="10" points="291.701,173.881 450.734,157.385 458.529,148.738 
	447.816,143.905 "/>
<polygon fill="#FFFFFF" stroke="#000000" stroke-miterlimit="10" points="291.701,173.881 150.754,100.363 139.106,101.919 
	144.09,112.438 "/>
<polygon fill="#FFFFFF" stroke="#000000" stroke-miterlimit="10" points="291.701,173.881 131.18,147.089 120.661,152.075 
	129.307,159.867 "/>
<path fill="#FFFFFF" stroke="#000000" stroke-miterlimit="10" d="M305.238,192.833c0,0,3.613-56.244-7.824-57.921
	c-11.44-1.677-24.119,53.239-24.119,53.239L305.238,192.833z"/>
</svg>
