<?xml version="1.0" encoding="utf-8"?>
<!-- Generator: Adobe Illustrator 16.0.0, SVG Export Plug-In . SVG Version: 6.00 Build 0)  -->
<!DOCTYPE svg PUBLIC "-//W3C//DTD SVG 1.1//EN" "http://www.w3.org/Graphics/SVG/1.1/DTD/svg11.dtd">
<svg version="1.1" id="Layer_1" xmlns="http://www.w3.org/2000/svg" xmlns:xlink="http://www.w3.org/1999/xlink" x="0px" y="0px"
	 width="1700.79px" height="354.33px" viewBox="0 0 1700.79 354.33" enable-background="new 0 0 1700.79 354.33"
	 xml:space="preserve">
<g>
	<path fill="#FFFFFF" d="M396.708,89.471h21.102v145.774h69.855v17.706h-90.958V89.471z"/>
	<path fill="#FFFFFF" d="M532.29,89.471v163.48h-21.102V89.471H532.29z"/>
	<path fill="#FFFFFF" d="M693.587,245.675c-9.459,3.396-28.136,8.975-50.208,8.975c-24.741,0-45.115-6.306-61.124-21.587
		c-14.068-13.583-22.8-35.413-22.8-60.881c0.243-48.753,33.715-84.409,88.532-84.409c18.919,0,33.715,4.124,40.749,7.52
		l-5.094,17.221c-8.732-3.881-19.647-7.034-36.141-7.034c-39.779,0-65.732,24.741-65.732,65.732
		c0,41.477,24.983,65.975,63.064,65.975c13.826,0,23.285-1.94,28.136-4.365v-48.754h-33.23v-16.979h53.847V245.675z"/>
	<path fill="#FFFFFF" d="M746.946,89.471v68.4h79.073v-68.4h21.345v163.48h-21.345v-76.646h-79.073v76.646h-21.102V89.471H746.946z"
		/>
	<path fill="#FFFFFF" d="M915.031,107.419h-49.723V89.471h121.034v17.949h-49.966v145.532h-21.346V107.419z"/>
	<path fill="#FFFFFF" d="M1025.633,89.471v68.4h79.072v-68.4h21.345v163.48h-21.345v-76.646h-79.072v76.646h-21.102V89.471H1025.633
		z"/>
	<path fill="#FFFFFF" d="M1302.383,169.513c0,56.272-34.199,86.106-75.919,86.106c-43.175,0-73.493-33.472-73.493-82.953
		c0-51.907,32.259-85.864,75.919-85.864C1273.52,86.802,1302.383,121.002,1302.383,169.513z M1175.527,172.181
		c0,34.928,18.92,66.217,52.149,66.217c33.473,0,52.392-30.805,52.392-67.915c0-32.502-16.979-66.46-52.149-66.46
		C1192.991,104.023,1175.527,136.283,1175.527,172.181z"/>
	<path fill="#FFFFFF" d="M1350.89,89.471v96.779c0,36.625,16.251,52.148,38.081,52.148c24.256,0,39.779-16.009,39.779-52.148V89.471
		h21.344v95.323c0,50.209-26.438,70.825-61.851,70.825c-33.473,0-58.698-19.161-58.698-69.855V89.471H1350.89z"/>
	<path fill="#FFFFFF" d="M1483.805,227.241c9.46,5.821,23.285,10.672,37.838,10.672c21.588,0,34.2-11.399,34.2-27.894
		c0-15.281-8.731-24.013-30.804-32.502c-26.682-9.46-43.175-23.285-43.175-46.328c0-25.468,21.103-44.387,52.877-44.387
		c16.736,0,28.863,3.881,36.141,8.004l-5.821,17.221c-5.337-2.911-16.252-7.762-31.047-7.762c-22.315,0-30.805,13.34-30.805,24.498
		c0,15.281,9.944,22.8,32.502,31.532c27.651,10.673,41.72,24.013,41.72,48.026c0,25.225-18.677,47.055-57.243,47.055
		c-15.766,0-32.987-4.608-41.719-10.43L1483.805,227.241z"/>
	<path fill="#FFFFFF" d="M1690.942,176.305h-63.549v58.94h70.826v17.706h-91.929V89.471h88.29v17.706h-67.188v51.664h63.549V176.305
		z"/>
</g>
<g>
	<polygon fill="#DC1431" points="163.953,4.918 163.953,4.918 163.953,4.918 4,61.958 28.396,273.455 163.953,348.534 
		163.953,348.534 163.953,348.534 299.509,273.455 323.907,61.958 	"/>
	<polygon fill="#C30E2F" points="163.953,4.918 163.953,43.059 163.953,42.888 163.953,216.929 163.953,216.929 163.953,348.534 
		163.953,348.534 299.509,273.455 323.907,61.958 	"/>
	<path fill="#FFFFFF" d="M163.953,42.888L63.96,267.098l0,0h37.282l0,0l20.102-50.169h84.874l20.101,50.169l0,0h37.282l0,0
		L163.953,42.888L163.953,42.888L163.953,42.888L163.953,42.888L163.953,42.888z M193.16,186.004h-58.415l29.208-70.27
		L193.16,186.004z"/>
</g>
</svg>
