<?xml version="1.0" encoding="utf-8"?>
<!-- Generator: Adobe Illustrator 16.0.0, SVG Export Plug-In . SVG Version: 6.00 Build 0)  -->
<!DOCTYPE svg PUBLIC "-//W3C//DTD SVG 1.1//EN" "http://www.w3.org/Graphics/SVG/1.1/DTD/svg11.dtd">
<svg version="1.1" id="Layer_1" xmlns="http://www.w3.org/2000/svg" xmlns:xlink="http://www.w3.org/1999/xlink" x="0px" y="0px"
	 width="1984.25px" height="566.93px" viewBox="0 0 1984.25 566.93" enable-background="new 0 0 1984.25 566.93"
	 xml:space="preserve">
<polygon fill="#DC1431" stroke="#000000" stroke-miterlimit="10" points="180.041,237.19 171.597,235.953 167.692,241.906 
	179.105,243.579 "/>
<polygon fill="#DC1431" stroke="#000000" stroke-miterlimit="10" points="192.82,239.063 201.819,240.383 203.278,247.123 
	191.884,245.452 "/>
<polygon fill="#DC1431" stroke="#000000" stroke-miterlimit="10" points="189.542,261.424 203.8,263.514 204.789,270.184 
	188.606,267.812 "/>
<polyline fill="#DC1431" stroke="#000000" stroke-miterlimit="10" points="207.161,299.898 184.392,296.561 185.329,290.171 
	206.197,293.23 "/>
<polygon fill="#DC1431" stroke="#000000" stroke-miterlimit="10" points="176.764,259.55 162.378,257.442 159.984,263.616 
	175.828,265.939 "/>
<polygon fill="#DC1431" stroke="#000000" stroke-miterlimit="10" points="171.614,294.688 172.551,288.294 150.339,285.038 
	146.538,291.011 "/>
<polyline fill="#DC1431" stroke="#000000" stroke-miterlimit="10" points="209.592,323.095 181.115,318.919 180.179,325.31 
	190.399,326.808 194.026,408.909 168.474,405.164 167.538,411.552 219.67,419.194 "/>
<polygon fill="#DC1431" stroke="#000000" stroke-miterlimit="10" points="168.336,317.047 139.768,312.858 102.452,402.012 
	154.758,409.68 155.695,403.29 130.142,399.546 157.18,321.938 167.399,323.437 "/>
<polyline fill="#DC1431" stroke="#000000" stroke-miterlimit="10" points="222.447,445.701 163.792,437.104 164.728,430.717 
	221.753,439.076 "/>
<polygon fill="#DC1431" stroke="#000000" stroke-miterlimit="10" points="151.95,428.845 94.732,420.459 92.159,426.605 
	151.013,435.231 "/>
<path fill="#DC1431" stroke="#000000" stroke-miterlimit="10" d="M160.046,462.659"/>
<polyline fill="#DC1431" stroke="#000000" stroke-miterlimit="10" points="225.228,472.214 160.046,462.659 159.109,469.049 
	225.922,478.843 "/>
<polygon fill="#DC1431" stroke="#000000" stroke-miterlimit="10" points="147.268,460.786 81.869,451.2 79.29,457.35 
	146.331,467.177 "/>
<path id="fill" fill="#DC1431" d="M269.117,564.421l4.816-32.862c-81.211-66.562-159.833-78.086-255.537-37.455l-10.3,70.272
	L269.117,564.421z"/>
<path fill="#FFFFFF" d="M236.49,564.415l5.034-34.344l-24.065-36.155c0,0-26.323-12.707-46.474-16.847l22.627,45.979l-6.064,41.371
	L236.49,564.415z"/>
<path fill="#FFFFFF" d="M47.25,564.38l9.477-64.658l26.643-25.937c31.255-4.293,49.306-3.003,49.306-3.003l-28.095,36.369
	l-8.394,57.27L47.25,564.38z"/>
<polyline fill="none" stroke="#000000" stroke-miterlimit="10" points="217.458,493.916 241.523,530.071 236.49,564.415 
	187.549,564.406 193.611,523.049 170.984,477.069 "/>
<path fill="#FFFFFF" stroke="#000000" stroke-miterlimit="10" d="M132.751,470.793l-28.17,36.358l-8.39,57.24l-48.94-0.01
	l9.477-64.66l26.643-25.937"/>
<polygon fill="#DC1431" points="156.301,488.213 195.596,220.124 198.844,220.6 228.076,499.386 243.135,508.896 213.158,220.51 
	204.766,193.177 181.767,189.806 165.884,213.58 54.04,480.973 71.142,476.633 179.706,217.564 182.856,217.987 143.522,486.341 "/>
<path id="outer_x5F_frame_1_" fill="none" stroke="#000000" stroke-miterlimit="10" d="M269.117,564.421l4.816-32.862
	c-81.211-66.562-159.835-78.086-255.537-37.455l-10.3,70.272L269.117,564.421z"/>
<rect id="middle_x5F_leg_x5F_fix" x="145.533" y="469.818" transform="matrix(-0.9894 -0.145 0.145 -0.9894 233.8 963.2212)" fill="#DC1431" width="12.915" height="6.55"/>
<polyline fill="none" stroke="#000000" stroke-miterlimit="10" points="243.135,508.896 213.158,220.51 204.766,193.177 
	181.767,189.806 165.884,213.58 54.04,480.973 "/>
<polyline fill="none" stroke="#000000" stroke-miterlimit="10" points="71.559,476.443 179.657,217.557 182.851,218.025 
	143.522,486.341 156.301,488.213 195.629,219.898 198.822,220.367 228.076,499.386 "/>
<rect x="111.34" y="196.568" transform="matrix(0.9894 0.145 -0.145 0.9894 31.0067 -25.7402)" fill="#DC1431" stroke="#000000" stroke-miterlimit="10" width="161.417" height="6.455"/>
<polygon fill="none" points="174.234,236.623 176.856,237.007 175.919,243.4 171.549,242.759 "/>
<circle fill="#DC1431" stroke="#000000" stroke-miterlimit="10" cx="216.152" cy="35.356" r="30.045"/>
<line fill="none" stroke="#000000" stroke-width="2" stroke-miterlimit="10" x1="205.626" y1="107.164" x2="211.794" y2="65.085"/>
<path fill="none" stroke="#000000" stroke-miterlimit="10" d="M220.471,290.8c0,0,32.654-62.474,36.4-88.028
	c2.715-18.526,20.752-85.055-51.244-95.608c-71.998-10.553-73.811,58.354-76.526,76.88c-3.746,25.554,9.503,94.756,9.503,94.756"/>
<polygon fill="#FFFFFF" stroke="#000000" stroke-miterlimit="10" points="195.701,174.881 355.285,208.061 365.804,203.078 
	357.158,195.284 "/>
<polygon fill="#FFFFFF" stroke="#000000" stroke-miterlimit="10" points="195.701,174.881 354.735,158.385 362.529,149.738 
	351.816,144.905 "/>
<polygon fill="#FFFFFF" stroke="#000000" stroke-miterlimit="10" points="195.701,174.881 54.754,101.363 43.106,102.919 
	48.09,113.438 "/>
<polygon fill="#FFFFFF" stroke="#000000" stroke-miterlimit="10" points="195.701,174.881 35.18,148.089 24.661,153.075 
	33.307,160.867 "/>
<path fill="#FFFFFF" stroke="#000000" stroke-miterlimit="10" d="M209.238,193.833c0,0,3.613-56.244-7.825-57.921
	c-11.44-1.677-24.119,53.239-24.119,53.239L209.238,193.833z"/>
<g>
	<path fill="#FFFFFF" d="M472.709,300.102l-19.272,58.37h-24.78L491.707,172.9h28.909l63.326,185.572h-25.605l-19.824-58.37H472.709
		z M533.557,281.379l-18.171-53.414c-4.131-12.114-6.884-23.127-9.637-33.865h-0.551c-2.754,11.013-5.782,22.301-9.361,33.59
		l-18.172,53.689H533.557z"/>
	<path fill="#FFFFFF" d="M609.546,261.281c0-13.767-0.275-25.055-1.102-36.068h21.477l1.376,22.026h0.551
		c6.608-12.665,22.026-25.055,44.053-25.055c18.447,0,47.081,11.013,47.081,56.718v79.57h-24.229v-76.817
		c0-21.476-7.984-39.372-30.837-39.372c-15.969,0-28.359,11.289-32.489,24.78c-1.101,3.028-1.651,7.158-1.651,11.288v80.121h-24.229
		V261.281z"/>
	<path fill="#FFFFFF" d="M877.161,225.212c-0.551,9.637-1.102,20.375-1.102,36.619v77.367c0,30.562-6.058,49.284-18.998,60.849
		c-12.94,12.114-31.663,15.969-48.458,15.969c-15.969,0-33.59-3.854-44.328-11.014l6.058-18.446
		c8.811,5.506,22.577,10.462,39.097,10.462c24.779,0,42.951-12.94,42.951-46.53v-14.868h-0.551
		c-7.434,12.39-21.751,22.302-42.4,22.302c-33.039,0-56.718-28.083-56.718-64.978c0-45.154,29.46-70.759,60.021-70.759
		c23.128,0,35.793,12.114,41.575,23.127h0.551l1.101-20.099H877.161z M852.105,277.8c0-4.13-0.275-7.709-1.376-11.013
		c-4.405-14.042-16.245-25.606-33.866-25.606c-23.127,0-39.647,19.548-39.647,50.385c0,26.156,13.216,47.907,39.372,47.907
		c14.868,0,28.359-9.361,33.591-24.779c1.376-4.13,1.927-8.811,1.927-12.94V277.8z"/>
	<path fill="#FFFFFF" d="M1027.759,322.128c0,13.767,0.275,25.881,1.102,36.344h-21.476l-1.377-21.751h-0.551
		c-6.332,10.738-20.374,24.779-44.053,24.779c-20.925,0-45.979-11.563-45.979-58.369v-77.918h24.229V299
		c0,25.331,7.71,42.401,29.736,42.401c16.244,0,27.532-11.289,31.938-22.026c1.377-3.579,2.203-7.984,2.203-12.39v-81.773h24.229
		V322.128z"/>
	<path fill="#FFFFFF" d="M1067.952,162.988h24.229v195.483h-24.229V162.988z"/>
	<path fill="#FFFFFF" d="M1206.715,358.472l-1.928-16.795h-0.826c-7.434,10.462-21.751,19.823-40.748,19.823
		c-26.982,0-40.749-18.997-40.749-38.271c0-32.214,28.634-49.834,80.121-49.559v-2.753c0-11.014-3.029-30.837-30.286-30.837
		c-12.391,0-25.331,3.854-34.692,9.912l-5.506-15.969c11.013-7.158,26.981-11.839,43.777-11.839c40.748,0,50.66,27.808,50.66,54.516
		v49.833c0,11.564,0.551,22.853,2.203,31.938H1206.715z M1203.135,290.465c-26.432-0.55-56.442,4.131-56.442,30.012
		c0,15.693,10.463,23.127,22.853,23.127c17.346,0,28.359-11.013,32.214-22.302c0.826-2.478,1.376-5.23,1.376-7.709V290.465z"/>
	<path fill="#FFFFFF" d="M1265.63,266.788c0-15.694-0.274-29.185-1.101-41.575h21.2l0.826,26.156h1.101
		c6.058-17.896,20.65-29.185,36.895-29.185c2.753,0,4.681,0.275,6.883,0.826v22.852c-2.478-0.551-4.955-0.826-8.26-0.826
		c-17.07,0-29.185,12.94-32.488,31.112c-0.551,3.304-1.102,7.158-1.102,11.288v71.035h-23.954V266.788z"/>
	<path fill="#FFFFFF" d="M1414.852,175.378c10.463-2.203,26.982-3.854,43.777-3.854c23.954,0,39.372,4.13,50.937,13.491
		c9.637,7.159,15.418,18.171,15.418,32.764c0,17.896-11.839,33.59-31.388,40.749v0.551c17.621,4.405,38.271,18.997,38.271,46.53
		c0,15.969-6.333,28.084-15.694,37.17c-12.94,11.839-33.865,17.346-64.151,17.346c-16.52,0-29.186-1.102-37.17-2.203V175.378z
		 M1438.806,251.369h21.751c25.33,0,40.198-13.215,40.198-31.112c0-21.751-16.521-30.287-40.749-30.287
		c-11.014,0-17.346,0.826-21.2,1.652V251.369z M1438.806,340.3c4.681,0.826,11.563,1.102,20.099,1.102
		c24.78,0,47.632-9.086,47.632-36.068c0-25.33-21.751-35.792-47.907-35.792h-19.823V340.3z"/>
	<path fill="#FFFFFF" d="M1684.943,290.74c0,49.284-34.141,70.76-66.354,70.76c-36.068,0-63.876-26.432-63.876-68.557
		c0-44.603,29.185-70.759,66.079-70.759C1659.062,222.184,1684.943,249.992,1684.943,290.74z M1579.217,292.117
		c0,29.185,16.795,51.211,40.474,51.211c23.128,0,40.474-21.751,40.474-51.762c0-22.577-11.289-51.21-39.923-51.21
		C1591.606,240.356,1579.217,266.788,1579.217,292.117z"/>
	<path fill="#FFFFFF" d="M1827.008,322.128c0,13.767,0.275,25.881,1.102,36.344h-21.476l-1.377-21.751h-0.551
		c-6.332,10.738-20.374,24.779-44.053,24.779c-20.925,0-45.979-11.563-45.979-58.369v-77.918h24.229V299
		c0,25.331,7.709,42.401,29.735,42.401c16.245,0,27.533-11.289,31.938-22.026c1.377-3.579,2.203-7.984,2.203-12.39v-81.773h24.229
		V322.128z"/>
	<path fill="#FFFFFF" d="M1876.012,225.212l29.186,78.744c3.028,8.811,6.332,19.273,8.535,27.258h0.551
		c2.478-7.984,5.231-18.172,8.535-27.808l26.432-78.194h25.605l-36.344,94.989c-17.346,45.704-29.185,69.107-45.704,83.425
		c-11.84,10.462-23.679,14.592-29.736,15.693l-6.057-20.374c6.057-1.928,14.042-5.782,21.2-11.84
		c6.607-5.23,14.868-14.592,20.374-26.981c1.102-2.479,1.928-4.405,1.928-5.782s-0.551-3.304-1.652-6.333l-49.284-122.796H1876.012z
		"/>
</g>
</svg>
