<?xml version="1.0" encoding="utf-8"?>
<!-- Generator: Adobe Illustrator 16.0.0, SVG Export Plug-In . SVG Version: 6.00 Build 0)  -->
<!DOCTYPE svg PUBLIC "-//W3C//DTD SVG 1.1//EN" "http://www.w3.org/Graphics/SVG/1.1/DTD/svg11.dtd">
<svg version="1.1" id="Layer_1" xmlns="http://www.w3.org/2000/svg" xmlns:xlink="http://www.w3.org/1999/xlink" x="0px" y="0px"
	 width="1700.79px" height="354.33px" viewBox="0 0 1700.79 354.33" enable-background="new 0 0 1700.79 354.33"
	 xml:space="preserve">
<g>
	<polygon fill="#6858A1" points="163.324,5.282 163.324,5.282 163.324,5.282 3.231,62.373 27.65,274.052 163.324,349.198 
		163.324,349.198 163.324,349.198 298.998,274.052 323.417,62.373 	"/>
	<polygon fill="#4C579B" points="163.324,5.282 163.324,43.457 163.324,43.285 163.324,217.478 163.324,217.478 163.324,349.198 
		163.324,349.198 298.998,274.052 323.417,62.373 	"/>
</g>
<g>
	<g>
		<g>
			
				<rect x="116.49" y="56.869" transform="matrix(0.8661 0.4999 -0.4999 0.8661 92.8072 -40.225)" fill="#FFFFFF" width="9.974" height="192.454"/>
		</g>
	</g>
	<g>
		<g>
			<rect x="67.064" y="220.621" fill="#FFFFFF" width="192.459" height="9.975"/>
		</g>
	</g>
	<g>
		<g>
			
				<rect x="65.92" y="244.711" transform="matrix(0.866 0.5 -0.5 0.866 141.1325 -27.2964)" fill="#FFFFFF" width="111.16" height="9.973"/>
		</g>
	</g>
	<g>
		<g>
			
				<rect x="149.546" y="99.852" transform="matrix(0.866 0.5 -0.5 0.866 79.9032 -88.5182)" fill="#FFFFFF" width="111.159" height="9.975"/>
		</g>
	</g>
	<g>
		<g>
			
				<rect x="116.539" y="49.223" transform="matrix(0.5 0.866 -0.866 0.5 151.5207 -52.8447)" fill="#FFFFFF" width="9.975" height="111.158"/>
		</g>
	</g>
	<g>
		<g>
			
				<rect x="108.967" y="148.11" transform="matrix(0.5 0.866 -0.866 0.5 235.1798 -101.1547)" fill="#FFFFFF" width="192.454" height="9.974"/>
		</g>
	</g>
	<g>
		<g>
			<rect x="74.696" y="121.659" fill="#FFFFFF" width="9.975" height="111.162"/>
		</g>
	</g>
	<g>
		<g>
			<rect x="241.979" y="121.659" fill="#FFFFFF" width="9.974" height="111.162"/>
		</g>
	</g>
	<g>
		<g>
			
				<rect x="200.768" y="201.303" transform="matrix(0.5 0.866 -0.866 0.5 318.7467 -52.8265)" fill="#FFFFFF" width="8.712" height="96.678"/>
		</g>
	</g>
	<path fill="#FFFFFF" d="M265.171,236.064c-5.768,10.035-18.626,13.459-28.661,7.691c-10.034-5.77-13.459-18.627-7.691-28.662
		c5.769-10.033,18.627-13.461,28.662-7.691C267.576,213.23,271,226.03,265.171,236.064"/>
	<path fill="#FFFFFF" d="M97.77,139.385c-5.769,10.034-18.626,13.459-28.662,7.69c-10.035-5.768-13.46-18.626-7.691-28.661
		c5.768-10.034,18.627-13.459,28.662-7.69C100.113,116.552,103.538,129.35,97.77,139.385"/>
	<path fill="#FFFFFF" d="M61.477,236.064c-5.769-10.034-2.343-22.834,7.691-28.662c10.035-5.77,22.833-2.342,28.662,7.691
		c5.768,10.035,2.344,22.834-7.691,28.662C80.043,249.523,67.246,246.1,61.477,236.064"/>
	<path fill="#FFFFFF" d="M228.879,139.385c-5.768-10.035-2.343-22.833,7.691-28.661c10.035-5.77,22.833-2.344,28.662,7.69
		c5.768,10.035,2.344,22.833-7.691,28.661C247.506,152.844,234.648,149.418,228.879,139.385"/>
	<path fill="#FFFFFF" d="M163.325,294.89c-11.598,0-20.972-9.373-20.972-20.97c0-11.598,9.374-20.971,20.972-20.971
		c11.597,0,20.97,9.373,20.97,20.971C184.295,285.455,174.921,294.89,163.325,294.89"/>
	<path fill="#FFFFFF" d="M163.325,101.53c-11.598,0-20.972-9.374-20.972-20.971s9.374-20.971,20.972-20.971
		c11.597,0,20.97,9.374,20.97,20.971S174.921,101.53,163.325,101.53"/>
</g>
<g>
	<path d="M396.708,89.471h21.102v145.774h69.855v17.706h-90.958V89.471z"/>
	<path d="M532.29,89.471v163.48h-21.102V89.471H532.29z"/>
	<path d="M693.587,245.675c-9.459,3.396-28.136,8.975-50.208,8.975c-24.741,0-45.115-6.306-61.124-21.587
		c-14.068-13.583-22.8-35.413-22.8-60.881c0.243-48.753,33.715-84.409,88.532-84.409c18.919,0,33.715,4.124,40.749,7.52
		l-5.094,17.221c-8.732-3.881-19.647-7.034-36.141-7.034c-39.779,0-65.732,24.741-65.732,65.732
		c0,41.477,24.983,65.975,63.064,65.975c13.826,0,23.285-1.94,28.136-4.365v-48.754h-33.23v-16.979h53.847V245.675z"/>
	<path d="M746.946,89.471v68.4h79.073v-68.4h21.345v163.48h-21.345v-76.646h-79.073v76.646h-21.102V89.471H746.946z"/>
	<path d="M915.031,107.419h-49.723V89.471h121.034v17.949h-49.966v145.532h-21.346V107.419z"/>
	<path d="M1025.633,89.471v68.4h79.072v-68.4h21.345v163.48h-21.345v-76.646h-79.072v76.646h-21.102V89.471H1025.633z"/>
	<path d="M1302.383,169.513c0,56.272-34.199,86.106-75.919,86.106c-43.175,0-73.493-33.472-73.493-82.953
		c0-51.907,32.259-85.864,75.919-85.864C1273.52,86.802,1302.383,121.002,1302.383,169.513z M1175.527,172.181
		c0,34.928,18.92,66.217,52.149,66.217c33.473,0,52.392-30.805,52.392-67.915c0-32.502-16.979-66.46-52.149-66.46
		C1192.991,104.023,1175.527,136.283,1175.527,172.181z"/>
	<path d="M1350.89,89.471v96.779c0,36.625,16.251,52.148,38.081,52.148c24.256,0,39.779-16.009,39.779-52.148V89.471h21.344v95.323
		c0,50.209-26.438,70.825-61.851,70.825c-33.473,0-58.698-19.161-58.698-69.855V89.471H1350.89z"/>
	<path d="M1483.805,227.241c9.46,5.821,23.285,10.672,37.838,10.672c21.588,0,34.2-11.399,34.2-27.894
		c0-15.281-8.731-24.013-30.804-32.502c-26.682-9.46-43.175-23.285-43.175-46.328c0-25.468,21.103-44.387,52.877-44.387
		c16.736,0,28.863,3.881,36.141,8.004l-5.821,17.221c-5.337-2.911-16.252-7.762-31.047-7.762c-22.315,0-30.805,13.34-30.805,24.498
		c0,15.281,9.944,22.8,32.502,31.532c27.651,10.673,41.72,24.013,41.72,48.026c0,25.225-18.677,47.055-57.243,47.055
		c-15.766,0-32.987-4.608-41.719-10.43L1483.805,227.241z"/>
	<path d="M1690.942,176.305h-63.549v58.94h70.826v17.706h-91.929V89.471h88.29v17.706h-67.188v51.664h63.549V176.305z"/>
</g>
</svg>
