<?xml version="1.0" encoding="utf-8"?>
<!-- Generator: Adobe Illustrator 16.0.0, SVG Export Plug-In . SVG Version: 6.00 Build 0)  -->
<!DOCTYPE svg PUBLIC "-//W3C//DTD SVG 1.1//EN" "http://www.w3.org/Graphics/SVG/1.1/DTD/svg11.dtd">
<svg version="1.1" id="Layer_1" xmlns="http://www.w3.org/2000/svg" xmlns:xlink="http://www.w3.org/1999/xlink" x="0px" y="0px"
	 width="1077.17px" height="566.93px" viewBox="0 0 1077.17 566.93" enable-background="new 0 0 1077.17 566.93"
	 xml:space="preserve">
<polygon fill="#DB1831" stroke="#000000" stroke-miterlimit="10" points="180.041,237.189 171.597,235.953 167.691,241.905 
	179.104,243.579 "/>
<polygon fill="#DB1831" stroke="#000000" stroke-miterlimit="10" points="192.819,239.062 201.818,240.383 203.277,247.123 
	191.884,245.452 "/>
<polygon fill="#DB1831" stroke="#000000" stroke-miterlimit="10" points="189.542,261.424 203.8,263.514 204.789,270.184 
	188.605,267.812 "/>
<polyline fill="#DB1831" stroke="#000000" stroke-miterlimit="10" points="207.161,299.897 184.392,296.561 185.329,290.171 
	206.196,293.229 "/>
<polygon fill="#DB1831" stroke="#000000" stroke-miterlimit="10" points="176.764,259.55 162.378,257.441 159.983,263.616 
	175.828,265.938 "/>
<polygon fill="#DB1831" stroke="#000000" stroke-miterlimit="10" points="171.613,294.688 172.551,288.294 150.339,285.038 
	146.538,291.011 "/>
<polyline fill="#DB1831" stroke="#000000" stroke-miterlimit="10" points="209.592,323.095 181.115,318.919 180.179,325.31 
	190.398,326.808 194.025,408.909 168.474,405.164 167.538,411.552 219.67,419.193 "/>
<polygon fill="#DB1831" stroke="#000000" stroke-miterlimit="10" points="168.336,317.047 139.768,312.857 102.452,402.012 
	154.758,409.68 155.694,403.29 130.142,399.546 157.18,321.938 167.398,323.437 "/>
<polyline fill="#DB1831" stroke="#000000" stroke-miterlimit="10" points="222.446,445.699 163.792,437.104 164.728,430.717 
	221.753,439.074 "/>
<polygon fill="#DB1831" stroke="#000000" stroke-miterlimit="10" points="151.95,428.845 94.731,420.459 92.159,426.604 
	151.013,435.23 "/>
<path fill="#DB1831" stroke="#000000" stroke-miterlimit="10" d="M160.046,462.657"/>
<polyline fill="#DB1831" stroke="#000000" stroke-miterlimit="10" points="225.228,472.214 160.046,462.657 159.108,469.049 
	225.922,478.843 "/>
<polygon fill="#DB1831" stroke="#000000" stroke-miterlimit="10" points="147.268,460.784 81.869,451.198 79.29,457.35 
	146.331,467.177 "/>
<path id="fill" fill="#DB1831" d="M269.117,564.421l4.814-32.862c-81.211-66.562-159.833-78.086-255.537-37.455l-10.3,70.272
	L269.117,564.421z"/>
<path fill="#FFFFFF" d="M236.49,564.413l5.032-34.344l-24.063-36.155c0,0-26.323-12.706-46.476-16.847l22.627,45.979l-6.062,41.37
	L236.49,564.413z"/>
<path fill="#FFFFFF" d="M47.25,564.38l9.477-64.658l26.645-25.938c31.255-4.293,49.306-3.003,49.306-3.003l-28.095,36.369
	l-8.396,57.271L47.25,564.38z"/>
<polyline fill="none" stroke="#000000" stroke-miterlimit="10" points="217.458,493.914 241.522,530.07 236.49,564.413 
	187.549,564.405 193.61,523.049 170.983,477.068 "/>
<path fill="#FFFFFF" stroke="#000000" stroke-miterlimit="10" d="M132.751,470.793l-28.17,36.356l-8.392,57.24l-48.938-0.01
	l9.477-64.66l26.645-25.938"/>
<polygon fill="#DB1831" points="156.301,488.213 195.596,220.124 198.844,220.6 228.076,499.386 243.135,508.896 213.158,220.51 
	204.766,193.177 181.767,189.806 165.884,213.58 54.04,480.973 71.142,476.633 179.706,217.563 182.855,217.986 143.521,486.341 "/>
<path id="outer_x5F_frame_1_" fill="none" stroke="#000000" stroke-miterlimit="10" d="M269.117,564.421l4.814-32.862
	c-81.211-66.562-159.835-78.086-255.537-37.455l-10.3,70.272L269.117,564.421z"/>
<rect id="middle_x5F_leg_x5F_fix" x="145.541" y="469.816" transform="matrix(-0.9894 -0.145 0.145 -0.9894 233.8068 963.2197)" fill="#DB1831" width="12.914" height="6.55"/>
<polyline fill="none" stroke="#000000" stroke-miterlimit="10" points="243.135,508.896 213.158,220.51 204.766,193.177 
	181.767,189.806 165.884,213.58 54.04,480.973 "/>
<polyline fill="none" stroke="#000000" stroke-miterlimit="10" points="71.559,476.442 179.657,217.557 182.851,218.024 
	143.521,486.341 156.301,488.213 195.629,219.897 198.821,220.367 228.076,499.386 "/>
<rect x="111.351" y="196.564" transform="matrix(0.9894 0.145 -0.145 0.9894 30.9999 -25.7367)" fill="#DB1831" stroke="#000000" stroke-miterlimit="10" width="161.407" height="6.455"/>
<polygon fill="none" points="174.233,236.623 176.855,237.007 175.919,243.399 171.549,242.759 "/>
<circle fill="#DB1831" stroke="#000000" stroke-miterlimit="10" cx="216.151" cy="35.355" r="30.045"/>
<line fill="none" stroke="#000000" stroke-width="2" stroke-miterlimit="10" x1="205.626" y1="107.164" x2="211.794" y2="65.085"/>
<path fill="none" stroke="#000000" stroke-miterlimit="10" d="M220.471,290.8c0,0,32.654-62.474,36.4-88.028
	c2.715-18.524,20.752-85.055-51.244-95.606c-71.998-10.555-73.812,58.354-76.526,76.88c-3.746,25.554,9.503,94.756,9.503,94.756"/>
<polygon fill="#FFFFFF" stroke="#000000" stroke-miterlimit="10" points="195.701,174.881 355.283,208.061 365.804,203.078 
	357.156,195.284 "/>
<polygon fill="#FFFFFF" stroke="#000000" stroke-miterlimit="10" points="195.701,174.881 354.734,158.385 362.528,149.737 
	351.815,144.904 "/>
<polygon fill="#FFFFFF" stroke="#000000" stroke-miterlimit="10" points="195.701,174.881 54.754,101.362 43.105,102.919 
	48.09,113.438 "/>
<polygon fill="#FFFFFF" stroke="#000000" stroke-miterlimit="10" points="195.701,174.881 35.18,148.089 24.661,153.075 
	33.307,160.867 "/>
<path fill="#FFFFFF" stroke="#000000" stroke-miterlimit="10" d="M209.237,193.833c0,0,3.613-56.244-7.823-57.921
	c-11.44-1.679-24.119,53.237-24.119,53.237L209.237,193.833z"/>
<path fill="#FFFFFF" d="M511.852,163.378c10.463-2.203,26.982-3.854,43.777-3.854c23.953,0,39.371,4.13,50.937,13.491
	c9.637,7.159,15.418,18.171,15.418,32.764c0,17.896-11.839,33.592-31.388,40.749v0.553c17.621,4.403,38.271,18.997,38.271,46.528
	c0,15.971-6.333,28.084-15.692,37.17c-12.94,11.841-33.865,17.348-64.151,17.348c-16.521,0-29.187-1.104-37.17-2.203
	L511.852,163.378L511.852,163.378z M535.806,239.369h21.751c25.33,0,40.198-13.217,40.198-31.112
	c0-21.751-16.521-30.287-40.749-30.287c-11.016,0-17.348,0.826-21.2,1.652V239.369z M535.806,328.3
	c4.681,0.826,11.562,1.102,20.099,1.102c24.78,0,47.632-9.086,47.632-36.066c0-25.33-21.751-35.792-47.905-35.792h-19.823
	L535.806,328.3L535.806,328.3z"/>
<path fill="#FFFFFF" d="M925.108,276.761c0,49.284-34.141,70.761-66.354,70.761c-36.068,0-63.876-26.433-63.876-68.558
	c0-44.604,29.185-70.76,66.078-70.76C899.229,208.205,925.108,236.012,925.108,276.761z M819.383,278.138
	c0,29.185,16.795,51.212,40.474,51.212c23.128,0,40.474-21.753,40.474-51.763c0-22.578-11.287-51.21-39.923-51.21
	S819.383,252.808,819.383,278.138z"/>
<path fill="#FFFFFF" d="M764.047,306.635c0,13.767,0.273,25.881,1.102,36.344h-21.476l-1.377-21.751h-0.552
	c-6.332,10.738-20.373,24.779-44.054,24.779c-20.925,0-45.979-11.563-45.979-58.369V209.72h24.229v73.788
	c0,25.331,7.709,42.401,29.735,42.401c16.245,0,27.533-11.289,31.938-22.026c1.377-3.579,2.203-7.984,2.203-12.39V209.72h24.229
	L764.047,306.635L764.047,306.635z"/>
<path fill="#FFFFFF" d="M973.012,213.212l29.186,78.744c3.028,8.811,6.332,19.271,8.535,27.258h0.551
	c2.479-7.984,5.231-18.172,8.535-27.81l26.434-78.192h25.604l-36.344,94.989c-17.346,45.702-29.187,69.105-45.704,83.425
	c-11.84,10.462-23.679,14.592-29.736,15.691l-6.057-20.374c6.057-1.928,14.042-5.78,21.2-11.84
	c6.605-5.229,14.868-14.592,20.374-26.979c1.102-2.479,1.928-4.405,1.928-5.782s-0.551-3.304-1.652-6.333L946.58,213.213
	L973.012,213.212L973.012,213.212z"/>
</svg>
