<svg xmlns="http://www.w3.org/2000/svg" width="1700.79" height="354.33" viewBox="0 0 1700.79 354.33"><path fill="#6858A1" d="M163.324 5.282L3.231 62.373 27.65 274.052l135.674 75.146 135.674-75.146 24.419-211.679z"/><path fill="#4C579B" d="M163.324 5.282v38.175-.172 305.913l135.674-75.146 24.419-211.679z"/><path fill="#FFF" d="M165.27 67.263l8.639 4.986L77.7 238.933l-8.638-4.986z"/><path fill="#FFF" d="M67.064 220.621h192.459v9.975H67.064z"/><path fill="#FFF" d="M75.864 217.583l96.264 55.58-4.986 8.637-96.265-55.58zm83.62-144.856l96.264 55.58-4.988 8.637-96.263-55.579z"/><path fill="#FFF" d="M167.163 72.69l4.988 8.638-96.263 55.579-4.988-8.638z"/><path fill="#FFF" d="M161.4 67.266l96.227 166.665-8.637 4.987-96.227-166.665zm-86.704 54.393h9.975v111.162h-9.975z"/><path fill="#FFF" d="M241.979 121.659h9.974v111.162h-9.974z"/><path fill="#FFF" d="M244.802 221.69l4.356 7.545-83.723 48.339-4.356-7.545z"/><path fill="#FFF" d="M265.171 236.064c-5.768 10.035-18.626 13.459-28.661 7.691-10.034-5.77-13.459-18.627-7.691-28.662 5.769-10.033 18.627-13.461 28.662-7.691 10.095 5.828 13.519 18.628 7.69 28.662M97.77 139.385c-5.769 10.034-18.626 13.459-28.662 7.69-10.035-5.768-13.46-18.626-7.691-28.661 5.768-10.034 18.627-13.459 28.662-7.69 10.034 5.828 13.459 18.626 7.691 28.661m-36.293 96.679c-5.769-10.034-2.343-22.834 7.691-28.662 10.035-5.77 22.833-2.342 28.662 7.691 5.768 10.035 2.344 22.834-7.691 28.662-10.096 5.768-22.893 2.345-28.662-7.691m167.402-96.679c-5.768-10.035-2.343-22.833 7.691-28.661 10.035-5.77 22.833-2.344 28.662 7.69 5.768 10.035 2.344 22.833-7.691 28.661-10.035 5.769-22.893 2.343-28.662-7.69M163.325 294.89c-11.598 0-20.972-9.373-20.972-20.97 0-11.598 9.374-20.971 20.972-20.971 11.597 0 20.97 9.373 20.97 20.971 0 11.535-9.374 20.97-20.97 20.97m0-193.36c-11.598 0-20.972-9.374-20.972-20.971s9.374-20.971 20.972-20.971c11.597 0 20.97 9.374 20.97 20.971s-9.374 20.971-20.97 20.971"/><path d="M396.708 89.471h21.102v145.774h69.855v17.706h-90.958V89.471zm135.582 0v163.48h-21.102V89.471h21.102zm161.297 156.204c-9.459 3.396-28.136 8.975-50.208 8.975-24.741 0-45.115-6.306-61.124-21.587-14.068-13.583-22.8-35.413-22.8-60.881.243-48.753 33.715-84.409 88.532-84.409 18.919 0 33.715 4.124 40.749 7.52l-5.094 17.221c-8.732-3.881-19.647-7.034-36.141-7.034-39.779 0-65.732 24.741-65.732 65.732 0 41.477 24.983 65.975 63.064 65.975 13.826 0 23.285-1.94 28.136-4.365v-48.754h-33.23v-16.979h53.847v78.586zm53.359-156.204v68.4h79.073v-68.4h21.345v163.48h-21.345v-76.646h-79.073v76.646h-21.102V89.471h21.102zm168.085 17.948h-49.723V89.471h121.034v17.949h-49.966v145.532H915.03V107.419zm110.602-17.948v68.4h79.072v-68.4h21.345v163.48h-21.345v-76.646h-79.072v76.646h-21.102V89.471h21.102zm276.75 80.042c0 56.272-34.199 86.106-75.919 86.106-43.175 0-73.493-33.472-73.493-82.953 0-51.907 32.259-85.864 75.919-85.864 44.63 0 73.493 34.2 73.493 82.711zm-126.856 2.668c0 34.928 18.92 66.217 52.149 66.217 33.473 0 52.392-30.805 52.392-67.915 0-32.502-16.979-66.46-52.149-66.46-34.928 0-52.392 32.26-52.392 68.158zm175.363-82.71v96.779c0 36.625 16.251 52.148 38.081 52.148 24.256 0 39.779-16.009 39.779-52.148V89.471h21.344v95.323c0 50.209-26.438 70.825-61.851 70.825-33.473 0-58.698-19.161-58.698-69.855V89.471h21.345zm132.915 137.77c9.46 5.821 23.285 10.672 37.838 10.672 21.588 0 34.2-11.399 34.2-27.894 0-15.281-8.731-24.013-30.804-32.502-26.682-9.46-43.175-23.285-43.175-46.328 0-25.468 21.103-44.387 52.877-44.387 16.736 0 28.863 3.881 36.141 8.004l-5.821 17.221c-5.337-2.911-16.252-7.762-31.047-7.762-22.315 0-30.805 13.34-30.805 24.498 0 15.281 9.944 22.8 32.502 31.532 27.651 10.673 41.72 24.013 41.72 48.026 0 25.225-18.677 47.055-57.243 47.055-15.766 0-32.987-4.608-41.719-10.43l5.336-17.705zm207.137-50.936h-63.549v58.94h70.826v17.706h-91.929V89.471h88.29v17.706h-67.188v51.664h63.549v17.464z"/></svg>