<svg xmlns="http://www.w3.org/2000/svg" width="1700.79" height="354.33" viewBox="0 0 1700.79 354.33"><path d="M396.708 89.471h21.102v145.774h69.855v17.706h-90.958V89.471zm135.582 0v163.48h-21.102V89.471h21.102zm161.297 156.204c-9.459 3.396-28.136 8.975-50.208 8.975-24.741 0-45.115-6.306-61.124-21.587-14.068-13.583-22.8-35.413-22.8-60.881.243-48.753 33.715-84.409 88.532-84.409 18.919 0 33.715 4.124 40.749 7.52l-5.094 17.221c-8.732-3.881-19.647-7.034-36.141-7.034-39.779 0-65.732 24.741-65.732 65.732 0 41.477 24.983 65.975 63.064 65.975 13.826 0 23.285-1.94 28.136-4.365v-48.754h-33.23v-16.979h53.847v78.586zm53.359-156.204v68.4h79.073v-68.4h21.345v163.48h-21.345v-76.646h-79.073v76.646h-21.102V89.471h21.102zm168.085 17.948h-49.723V89.471h121.034v17.949h-49.966v145.532H915.03V107.419zm110.602-17.948v68.4h79.072v-68.4h21.345v163.48h-21.345v-76.646h-79.072v76.646h-21.102V89.471h21.102zm276.75 80.042c0 56.272-34.199 86.106-75.919 86.106-43.175 0-73.493-33.472-73.493-82.953 0-51.907 32.259-85.864 75.919-85.864 44.63 0 73.493 34.2 73.493 82.711zm-126.856 2.668c0 34.928 18.92 66.217 52.149 66.217 33.473 0 52.392-30.805 52.392-67.915 0-32.502-16.979-66.46-52.149-66.46-34.928 0-52.392 32.26-52.392 68.158zm175.363-82.71v96.779c0 36.625 16.251 52.148 38.081 52.148 24.256 0 39.779-16.009 39.779-52.148V89.471h21.344v95.323c0 50.209-26.438 70.825-61.851 70.825-33.473 0-58.698-19.161-58.698-69.855V89.471h21.345zm132.915 137.77c9.46 5.821 23.285 10.672 37.838 10.672 21.588 0 34.2-11.399 34.2-27.894 0-15.281-8.731-24.013-30.804-32.502-26.682-9.46-43.175-23.285-43.175-46.328 0-25.468 21.103-44.387 52.877-44.387 16.736 0 28.863 3.881 36.141 8.004l-5.821 17.221c-5.337-2.911-16.252-7.762-31.047-7.762-22.315 0-30.805 13.34-30.805 24.498 0 15.281 9.944 22.8 32.502 31.532 27.651 10.673 41.72 24.013 41.72 48.026 0 25.225-18.677 47.055-57.243 47.055-15.766 0-32.987-4.608-41.719-10.43l5.336-17.705zm207.137-50.936h-63.549v58.94h70.826v17.706h-91.929V89.471h88.29v17.706h-67.188v51.664h63.549v17.464z" fill="#FFF"/><path fill="#DC1431" d="M163.953 4.918L4 61.958l24.396 211.497 135.557 75.079 135.556-75.079 24.398-211.497z"/><path fill="#C30E2F" d="M163.953 4.918v38.141-.171 305.646l135.556-75.079 24.398-211.497z"/><path fill="#FFF" d="M163.953 42.888L63.96 267.098h37.282l20.102-50.169h84.874l20.101 50.169h37.282l-99.648-224.21zm29.207 143.116h-58.415l29.208-70.27 29.207 70.27z"/></svg>