<?xml version="1.0" encoding="utf-8"?>
<!-- Generator: Adobe Illustrator 16.0.0, SVG Export Plug-In . SVG Version: 6.00 Build 0)  -->
<!DOCTYPE svg PUBLIC "-//W3C//DTD SVG 1.1//EN" "http://www.w3.org/Graphics/SVG/1.1/DTD/svg11.dtd">
<svg version="1.1" id="Layer_1" xmlns="http://www.w3.org/2000/svg" xmlns:xlink="http://www.w3.org/1999/xlink" x="0px" y="0px"
	 width="800px" height="350px" viewBox="0 0 800 350" enable-background="new 0 0 800 350" xml:space="preserve">
<linearGradient id="SVGID_1_" gradientUnits="userSpaceOnUse" x1="0" y1="167.5" x2="800" y2="167.5">
	<stop  offset="0" style="stop-color:#1D5B9F"/>
	<stop  offset="1" style="stop-color:#3EA0C1"/>
</linearGradient>
<polygon fill="url(#SVGID_1_)" points="0,0 0,264.211 800,335 800,0 "/>
<g>
	<path fill="#FFFFFF" d="M191.649,124.361l-7.28,22.049h-9.361l23.818-70.102h10.92l23.922,70.102h-9.672l-7.489-22.049H191.649z
		 M214.635,117.289l-6.864-20.177c-1.561-4.577-2.601-8.737-3.641-12.793h-0.208c-1.04,4.161-2.184,8.425-3.536,12.689
		l-6.865,20.281H214.635z"/>
	<path fill="#FFFFFF" d="M243.341,109.696c0-5.201-0.104-9.465-0.417-13.625h8.113l0.52,8.321h0.208
		c2.497-4.784,8.321-9.465,16.642-9.465c6.969,0,17.786,4.16,17.786,21.426v30.058h-9.153v-29.018
		c0-8.113-3.016-14.873-11.649-14.873c-6.032,0-10.713,4.265-12.273,9.361c-0.416,1.144-0.624,2.704-0.624,4.265v30.266h-9.153
		V109.696z"/>
	<path fill="#FFFFFF" d="M344.436,96.071c-0.208,3.641-0.416,7.697-0.416,13.833v29.226c0,11.545-2.289,18.618-7.177,22.987
		c-4.888,4.576-11.961,6.032-18.306,6.032c-6.032,0-12.689-1.456-16.745-4.16l2.288-6.969c3.329,2.08,8.529,3.952,14.769,3.952
		c9.361,0,16.226-4.889,16.226-17.578v-5.616h-0.208c-2.808,4.68-8.217,8.424-16.018,8.424c-12.48,0-21.426-10.608-21.426-24.545
		c0-17.058,11.129-26.73,22.674-26.73c8.737,0,13.521,4.577,15.706,8.737h0.208l0.416-7.593H344.436z M334.971,115.937
		c0-1.561-0.104-2.913-0.52-4.161c-1.664-5.305-6.137-9.673-12.793-9.673c-8.737,0-14.978,7.385-14.978,19.034
		c0,9.881,4.993,18.097,14.873,18.097c5.617,0,10.713-3.537,12.689-9.361c0.52-1.56,0.728-3.328,0.728-4.888V115.937z"/>
	<path fill="#FFFFFF" d="M401.326,132.682c0,5.201,0.104,9.777,0.416,13.729h-8.113l-0.521-8.216h-0.208
		c-2.392,4.057-7.696,9.361-16.642,9.361c-7.904,0-17.369-4.369-17.369-22.049V96.071h9.153v27.875
		c0,9.568,2.913,16.017,11.233,16.017c6.137,0,10.401-4.265,12.065-8.32c0.52-1.353,0.832-3.016,0.832-4.681V96.071h9.153V132.682z"
		/>
	<path fill="#FFFFFF" d="M416.51,72.565h9.152v73.846h-9.152V72.565z"/>
	<path fill="#FFFFFF" d="M468.928,146.411l-0.728-6.344h-0.312c-2.809,3.953-8.217,7.489-15.394,7.489
		c-10.192,0-15.394-7.177-15.394-14.458c0-12.168,10.816-18.825,30.267-18.721v-1.04c0-4.161-1.145-11.649-11.44-11.649
		c-4.682,0-9.57,1.456-13.105,3.745l-2.08-6.033c4.16-2.704,10.192-4.472,16.537-4.472c15.393,0,19.137,10.505,19.137,20.594v18.825
		c0,4.369,0.209,8.632,0.833,12.064H468.928z M467.576,120.721c-9.985-0.208-21.322,1.561-21.322,11.337
		c0,5.928,3.953,8.736,8.633,8.736c6.553,0,10.713-4.16,12.17-8.425c0.312-0.936,0.52-1.976,0.52-2.912V120.721z"/>
	<path fill="#FFFFFF" d="M491.184,111.776c0-5.928-0.104-11.025-0.416-15.706h8.01l0.312,9.881h0.416
		c2.288-6.761,7.801-11.025,13.937-11.025c1.041,0,1.77,0.104,2.601,0.312v8.633c-0.936-0.208-1.872-0.312-3.12-0.312
		c-6.448,0-11.025,4.889-12.273,11.753c-0.207,1.249-0.416,2.704-0.416,4.264v26.834h-9.049V111.776z"/>
	<path fill="#FFFFFF" d="M547.555,77.245c3.952-0.832,10.192-1.456,16.537-1.456c9.049,0,14.873,1.561,19.242,5.097
		c3.641,2.704,5.824,6.864,5.824,12.377c0,6.761-4.473,12.689-11.857,15.394v0.208c6.656,1.664,14.457,7.177,14.457,17.577
		c0,6.032-2.393,10.609-5.928,14.041c-4.889,4.473-12.793,6.553-24.234,6.553c-6.24,0-11.025-0.416-14.041-0.833V77.245z
		 M556.604,105.952h8.217c9.568,0,15.186-4.992,15.186-11.753c0-8.216-6.242-11.441-15.395-11.441c-4.16,0-6.553,0.312-8.008,0.624
		V105.952z M556.604,139.546c1.768,0.312,4.367,0.416,7.592,0.416c9.361,0,17.994-3.432,17.994-13.625
		c0-9.568-8.217-13.521-18.098-13.521h-7.488V139.546z"/>
	<path fill="#FFFFFF" d="M703.667,120.077c0,18.617-12.897,26.73-25.065,26.73c-13.626,0-24.131-9.985-24.131-25.898
		c0-16.85,11.025-26.73,24.963-26.73C693.891,94.179,703.667,104.684,703.667,120.077z M663.728,120.597
		c0,11.024,6.345,19.345,15.29,19.345c8.736,0,15.289-8.217,15.289-19.553c0-8.529-4.265-19.346-15.082-19.346
		C668.408,101.043,663.728,111.028,663.728,120.597z"/>
	<path fill="#FFFFFF" d="M642.824,131.362c0,5.2,0.104,9.777,0.416,13.729h-8.113l-0.52-8.217h-0.209
		c-2.391,4.057-7.695,9.361-16.641,9.361c-7.904,0-17.369-4.368-17.369-22.05V94.751h9.152v27.874
		c0,9.57,2.912,16.018,11.232,16.018c6.137,0,10.401-4.265,12.065-8.321c0.521-1.352,0.833-3.017,0.833-4.68V94.751h9.152V131.362z"
		/>
	<path fill="#FFFFFF" d="M721.763,96.071l11.024,29.746c1.145,3.329,2.393,7.281,3.225,10.297h0.209
		c0.936-3.016,1.976-6.864,3.224-10.504l9.985-29.539h9.672l-13.729,35.883c-6.553,17.265-11.025,26.106-17.266,31.514
		c-4.473,3.953-8.945,5.512-11.232,5.928l-2.289-7.696c2.289-0.729,5.305-2.185,8.009-4.473c2.496-1.976,5.616-5.512,7.696-10.193
		c0.416-0.937,0.729-1.664,0.729-2.184s-0.208-1.249-0.624-2.393l-18.618-46.388H721.763z"/>
</g>
<g>
	<path fill="#FFFFFF" d="M180.157,185.982l-1.948,5.9h-2.505l6.374-18.759H185l6.401,18.759h-2.588l-2.004-5.9H180.157z
		 M186.308,184.09l-1.837-5.4c-0.417-1.225-0.696-2.338-0.974-3.423h-0.056c-0.278,1.113-0.584,2.255-0.946,3.396l-1.837,5.428
		H186.308z"/>
	<path fill="#FFFFFF" d="M200.058,173.124h2.421v16.727h8.016v2.032h-10.437V173.124z"/>
	<path fill="#FFFFFF" d="M215.839,174.626c0.028,0.835-0.584,1.502-1.559,1.502c-0.863,0-1.475-0.667-1.475-1.502
		c0-0.863,0.64-1.531,1.531-1.531C215.254,173.096,215.839,173.764,215.839,174.626z M213.111,191.883v-13.471h2.449v13.471H213.111
		z"/>
	<path fill="#FFFFFF" d="M231.23,178.412c-0.056,0.974-0.111,2.059-0.111,3.701v7.82c0,3.09-0.612,4.982-1.92,6.151
		c-1.308,1.225-3.201,1.614-4.898,1.614c-1.614,0-3.396-0.39-4.481-1.113l0.612-1.865c0.891,0.557,2.282,1.059,3.952,1.059
		c2.505,0,4.342-1.309,4.342-4.704v-1.503h-0.056c-0.751,1.252-2.199,2.254-4.286,2.254c-3.34,0-5.733-2.838-5.733-6.568
		c0-4.564,2.978-7.152,6.067-7.152c2.338,0,3.618,1.225,4.203,2.338h0.056l0.111-2.031H231.23z M228.698,183.728
		c0-0.417-0.028-0.779-0.139-1.113c-0.445-1.419-1.642-2.589-3.423-2.589c-2.338,0-4.008,1.977-4.008,5.094
		c0,2.645,1.336,4.843,3.98,4.843c1.503,0,2.867-0.946,3.396-2.505c0.139-0.418,0.195-0.891,0.195-1.309V183.728z"/>
	<path fill="#FFFFFF" d="M235.183,172.122h2.449v8.406h0.056c0.39-0.696,1.002-1.309,1.753-1.727
		c0.724-0.417,1.586-0.695,2.505-0.695c1.809,0,4.704,1.113,4.704,5.762v8.016h-2.449v-7.738c0-2.17-0.807-4.008-3.117-4.008
		c-1.586,0-2.839,1.113-3.284,2.449c-0.139,0.334-0.167,0.696-0.167,1.17v8.127h-2.449V172.122z"/>
	<path fill="#FFFFFF" d="M253.47,174.543v3.869h3.507v1.864h-3.507v7.265c0,1.67,0.473,2.615,1.837,2.615
		c0.64,0,1.113-0.083,1.419-0.166l0.111,1.836c-0.473,0.195-1.225,0.334-2.171,0.334c-1.141,0-2.06-0.361-2.644-1.029
		c-0.696-0.724-0.946-1.92-0.946-3.507v-7.348h-2.087v-1.864h2.087v-3.229L253.47,174.543z"/>
	<path fill="#FFFFFF" d="M259.732,172.122h2.449v8.406h0.056c0.39-0.696,1.002-1.309,1.753-1.727
		c0.724-0.417,1.586-0.695,2.505-0.695c1.809,0,4.704,1.113,4.704,5.762v8.016h-2.449v-7.738c0-2.17-0.807-4.008-3.117-4.008
		c-1.586,0-2.839,1.113-3.284,2.449c-0.139,0.334-0.167,0.696-0.167,1.17v8.127h-2.449V172.122z"/>
	<path fill="#FFFFFF" d="M287.371,185.035c0,4.982-3.451,7.153-6.708,7.153c-3.646,0-6.457-2.672-6.457-6.931
		c0-4.508,2.95-7.152,6.68-7.152C284.754,178.105,287.371,180.916,287.371,185.035z M276.683,185.175
		c0,2.95,1.698,5.177,4.091,5.177c2.338,0,4.091-2.199,4.091-5.232c0-2.282-1.141-5.177-4.036-5.177
		S276.683,182.614,276.683,185.175z"/>
	<path fill="#FFFFFF" d="M301.733,188.209c0,1.391,0.028,2.615,0.111,3.674h-2.171l-0.139-2.199h-0.056
		c-0.64,1.086-2.06,2.505-4.453,2.505c-2.115,0-4.648-1.169-4.648-5.9v-7.876h2.449v7.459c0,2.561,0.779,4.285,3.006,4.285
		c1.642,0,2.783-1.141,3.229-2.227c0.139-0.361,0.223-0.807,0.223-1.252v-8.266h2.449V188.209z"/>
	<path fill="#FFFFFF" d="M305.463,189.377c0.724,0.474,2.004,0.975,3.229,0.975c1.781,0,2.616-0.891,2.616-2.004
		c0-1.169-0.696-1.809-2.505-2.477c-2.421-0.863-3.562-2.199-3.562-3.813c0-2.171,1.753-3.952,4.648-3.952
		c1.364,0,2.561,0.39,3.312,0.835l-0.612,1.781c-0.529-0.334-1.503-0.779-2.755-0.779c-1.447,0-2.254,0.835-2.254,1.837
		c0,1.113,0.807,1.614,2.561,2.282c2.338,0.891,3.535,2.06,3.535,4.063c0,2.365-1.837,4.035-5.038,4.035
		c-1.475,0-2.839-0.361-3.785-0.918L305.463,189.377z"/>
	<path fill="#FFFFFF" d="M318.183,185.592c0.056,3.312,2.171,4.676,4.621,4.676c1.753,0,2.811-0.306,3.729-0.695l0.418,1.754
		c-0.863,0.389-2.338,0.834-4.48,0.834c-4.147,0-6.625-2.727-6.625-6.791c0-4.062,2.394-7.264,6.318-7.264
		c4.397,0,5.566,3.869,5.566,6.346c0,0.501-0.056,0.891-0.084,1.141H318.183z M325.364,183.839c0.027-1.559-0.641-3.979-3.396-3.979
		c-2.477,0-3.562,2.281-3.757,3.979H325.364z"/>
	<path fill="#FFFFFF" d="M351.026,191.047c-1.086,0.391-3.229,1.03-5.762,1.03c-2.839,0-5.177-0.724-7.014-2.478
		c-1.614-1.559-2.616-4.062-2.616-6.985c0.028-5.595,3.868-9.686,10.159-9.686c2.17,0,3.868,0.473,4.676,0.863l-0.585,1.976
		c-1.002-0.445-2.255-0.807-4.147-0.807c-4.564,0-7.542,2.838-7.542,7.542c0,4.759,2.866,7.57,7.236,7.57
		c1.587,0,2.672-0.223,3.229-0.501v-5.594h-3.813v-1.949h6.18V191.047z"/>
	<path fill="#FFFFFF" d="M354.646,182.614c0-1.587-0.028-2.95-0.111-4.202h2.143l0.084,2.644h0.111
		c0.611-1.81,2.087-2.95,3.729-2.95c0.279,0,0.474,0.027,0.696,0.084v2.31c-0.251-0.056-0.501-0.083-0.835-0.083
		c-1.726,0-2.95,1.308-3.284,3.145c-0.056,0.334-0.111,0.724-0.111,1.141v7.182h-2.421V182.614z"/>
	<path fill="#FFFFFF" d="M371.067,191.883l-0.195-1.698h-0.084c-0.751,1.058-2.198,2.004-4.119,2.004
		c-2.727,0-4.119-1.921-4.119-3.868c0-3.257,2.895-5.038,8.1-5.01v-0.279c0-1.113-0.307-3.117-3.062-3.117
		c-1.253,0-2.561,0.391-3.507,1.002l-0.557-1.613c1.113-0.725,2.728-1.197,4.426-1.197c4.119,0,5.121,2.811,5.121,5.511v5.038
		c0,1.168,0.055,2.31,0.223,3.229H371.067z M370.705,185.008c-2.672-0.056-5.706,0.418-5.706,3.033c0,1.587,1.059,2.338,2.311,2.338
		c1.754,0,2.867-1.113,3.256-2.254c0.084-0.25,0.14-0.529,0.14-0.779V185.008z"/>
	<path fill="#FFFFFF" d="M377.022,182.809c0-1.725-0.055-3.117-0.111-4.396h2.199l0.111,2.31h0.056
		c1.002-1.642,2.589-2.616,4.787-2.616c3.257,0,5.706,2.756,5.706,6.847c0,4.843-2.951,7.236-6.123,7.236
		c-1.781,0-3.34-0.779-4.147-2.115h-0.056v7.319h-2.422V182.809z M379.444,186.399c0,0.362,0.056,0.696,0.111,1.002
		c0.445,1.698,1.92,2.866,3.674,2.866c2.588,0,4.092-2.115,4.092-5.204c0-2.7-1.42-5.01-4.008-5.01c-1.67,0-3.229,1.196-3.702,3.034
		c-0.083,0.306-0.167,0.668-0.167,1.002V186.399z"/>
	<path fill="#FFFFFF" d="M392.86,172.122h2.449v8.406h0.055c0.391-0.696,1.002-1.309,1.754-1.727
		c0.724-0.417,1.586-0.695,2.505-0.695c1.81,0,4.704,1.113,4.704,5.762v8.016h-2.449v-7.738c0-2.17-0.808-4.008-3.117-4.008
		c-1.587,0-2.84,1.113-3.285,2.449c-0.139,0.334-0.166,0.696-0.166,1.17v8.127h-2.449V172.122z"/>
	<path fill="#FFFFFF" d="M423.866,194.638c-2.533-0.668-5.01-1.419-7.181-2.171c-0.39-0.139-0.779-0.278-1.142-0.278
		c-4.453-0.167-8.266-3.451-8.266-9.491c0-6.012,3.674-9.88,8.739-9.88c5.093,0,8.405,3.952,8.405,9.491
		c0,4.814-2.227,7.904-5.344,8.989v0.111c1.865,0.474,3.896,0.919,5.482,1.196L423.866,194.638z M421.862,182.42
		c0-3.758-1.948-7.626-5.928-7.626c-4.092,0-6.096,3.785-6.068,7.849c-0.027,3.979,2.172,7.57,5.957,7.57
		C419.691,190.213,421.862,186.705,421.862,182.42z"/>
	<path fill="#FFFFFF" d="M427.568,173.124h2.421v16.727h8.016v2.032h-10.437V173.124z"/>
	<path fill="#FFFFFF" d="M445.132,183.449v1.809h-6.875v-1.809H445.132z"/>
	<path fill="#FFFFFF" d="M458.102,191.381c-0.64,0.334-2.06,0.779-3.868,0.779c-4.064,0-6.708-2.755-6.708-6.874
		c0-4.147,2.839-7.153,7.236-7.153c1.447,0,2.728,0.362,3.396,0.696l-0.557,1.893c-0.584-0.334-1.503-0.64-2.839-0.64
		c-3.089,0-4.759,2.281-4.759,5.093c0,3.117,2.004,5.038,4.676,5.038c1.391,0,2.31-0.362,3.006-0.668L458.102,191.381z"/>
	<path fill="#FFFFFF" d="M460.968,172.122h2.449v19.761h-2.449V172.122z"/>
	<path fill="#FFFFFF" d="M470.265,174.626c0.028,0.835-0.584,1.502-1.559,1.502c-0.862,0-1.475-0.667-1.475-1.502
		c0-0.863,0.641-1.531,1.531-1.531C469.681,173.096,470.265,173.764,470.265,174.626z M467.538,191.883v-13.471h2.449v13.471
		H467.538z"/>
	<path fill="#FFFFFF" d="M475.414,185.592c0.056,3.312,2.171,4.676,4.62,4.676c1.754,0,2.811-0.306,3.729-0.695l0.417,1.754
		c-0.862,0.389-2.338,0.834-4.48,0.834c-4.146,0-6.624-2.727-6.624-6.791c0-4.062,2.394-7.264,6.317-7.264
		c4.398,0,5.566,3.869,5.566,6.346c0,0.501-0.055,0.891-0.083,1.141H475.414z M482.595,183.839c0.027-1.559-0.641-3.979-3.396-3.979
		c-2.478,0-3.562,2.281-3.757,3.979H482.595z"/>
	<path fill="#FFFFFF" d="M487.995,182.058c0-1.392-0.028-2.532-0.111-3.646h2.17l0.14,2.227h0.056
		c0.668-1.281,2.227-2.533,4.453-2.533c1.865,0,4.76,1.113,4.76,5.733v8.044h-2.449v-7.766c0-2.171-0.808-3.98-3.117-3.98
		c-1.615,0-2.867,1.142-3.285,2.506c-0.111,0.306-0.166,0.723-0.166,1.141v8.1h-2.449V182.058z"/>
	<path fill="#FFFFFF" d="M506.28,174.543v3.869h3.508v1.864h-3.508v7.265c0,1.67,0.474,2.615,1.838,2.615
		c0.64,0,1.113-0.083,1.419-0.166l0.111,1.836c-0.474,0.195-1.225,0.334-2.171,0.334c-1.141,0-2.06-0.361-2.645-1.029
		c-0.695-0.724-0.945-1.92-0.945-3.507v-7.348H501.8v-1.864h2.088v-3.229L506.28,174.543z"/>
	<path fill="#FFFFFF" d="M518.695,191.883v-11.606h-1.893v-1.864h1.893v-0.641c0-1.893,0.417-3.618,1.559-4.704
		c0.919-0.891,2.144-1.252,3.284-1.252c0.863,0,1.614,0.195,2.088,0.39l-0.334,1.893c-0.362-0.167-0.863-0.306-1.559-0.306
		c-2.088,0-2.617,1.837-2.617,3.896v0.725h3.257v1.864h-3.257v11.606H518.695z"/>
	<path fill="#FFFFFF" d="M538.401,185.035c0,4.982-3.451,7.153-6.708,7.153c-3.646,0-6.457-2.672-6.457-6.931
		c0-4.508,2.95-7.152,6.68-7.152C535.784,178.105,538.401,180.916,538.401,185.035z M527.714,185.175
		c0,2.95,1.697,5.177,4.091,5.177c2.338,0,4.091-2.199,4.091-5.232c0-2.282-1.141-5.177-4.035-5.177
		S527.714,182.614,527.714,185.175z"/>
	<path fill="#FFFFFF" d="M541.491,182.614c0-1.587-0.028-2.95-0.111-4.202h2.143l0.084,2.644h0.111
		c0.611-1.81,2.087-2.95,3.729-2.95c0.279,0,0.474,0.027,0.696,0.084v2.31c-0.251-0.056-0.501-0.083-0.835-0.083
		c-1.726,0-2.95,1.308-3.284,3.145c-0.056,0.334-0.111,0.724-0.111,1.141v7.182h-2.421V182.614z"/>
	<path fill="#FFFFFF" d="M559.61,185.982l-1.949,5.9h-2.504l6.373-18.759h2.922l6.402,18.759h-2.589l-2.004-5.9H559.61z
		 M565.761,184.09l-1.837-5.4c-0.417-1.225-0.696-2.338-0.974-3.423h-0.057c-0.277,1.113-0.584,2.255-0.945,3.396l-1.838,5.428
		H565.761z"/>
	<path fill="#FFFFFF" d="M573.444,182.058c0-1.392-0.028-2.532-0.111-3.646h2.17l0.14,2.227h0.056
		c0.668-1.281,2.227-2.533,4.453-2.533c1.865,0,4.76,1.113,4.76,5.733v8.044h-2.449v-7.766c0-2.171-0.808-3.98-3.117-3.98
		c-1.615,0-2.867,1.142-3.285,2.506c-0.111,0.306-0.166,0.723-0.166,1.141v8.1h-2.449V182.058z"/>
	<path fill="#FFFFFF" d="M600.498,178.412c-0.056,0.974-0.111,2.059-0.111,3.701v7.82c0,3.09-0.612,4.982-1.921,6.151
		c-1.308,1.225-3.2,1.614-4.898,1.614c-1.613,0-3.395-0.39-4.48-1.113l0.612-1.865c0.891,0.557,2.282,1.059,3.952,1.059
		c2.505,0,4.342-1.309,4.342-4.704v-1.503h-0.056c-0.751,1.252-2.198,2.254-4.286,2.254c-3.34,0-5.733-2.838-5.733-6.568
		c0-4.564,2.978-7.152,6.067-7.152c2.338,0,3.618,1.225,4.203,2.338h0.055l0.111-2.031H600.498z M597.966,183.728
		c0-0.417-0.028-0.779-0.14-1.113c-0.445-1.419-1.642-2.589-3.423-2.589c-2.338,0-4.008,1.977-4.008,5.094
		c0,2.645,1.336,4.843,3.979,4.843c1.503,0,2.866-0.946,3.396-2.505c0.139-0.418,0.195-0.891,0.195-1.309V183.728z"/>
	<path fill="#FFFFFF" d="M615.723,188.209c0,1.391,0.028,2.615,0.111,3.674h-2.171l-0.139-2.199h-0.057
		c-0.64,1.086-2.059,2.505-4.453,2.505c-2.115,0-4.647-1.169-4.647-5.9v-7.876h2.449v7.459c0,2.561,0.779,4.285,3.006,4.285
		c1.642,0,2.783-1.141,3.229-2.227c0.14-0.361,0.223-0.807,0.223-1.252v-8.266h2.449V188.209z"/>
	<path fill="#FFFFFF" d="M619.786,172.122h2.449v19.761h-2.449V172.122z"/>
	<path fill="#FFFFFF" d="M633.813,191.883l-0.194-1.698h-0.083c-0.752,1.058-2.199,2.004-4.119,2.004
		c-2.729,0-4.119-1.921-4.119-3.868c0-3.257,2.895-5.038,8.099-5.01v-0.279c0-1.113-0.306-3.117-3.062-3.117
		c-1.252,0-2.561,0.391-3.507,1.002l-0.557-1.613c1.113-0.725,2.728-1.197,4.425-1.197c4.119,0,5.121,2.811,5.121,5.511v5.038
		c0,1.168,0.057,2.31,0.223,3.229H633.813z M633.452,185.008c-2.672-0.056-5.705,0.418-5.705,3.033c0,1.587,1.057,2.338,2.31,2.338
		c1.753,0,2.866-1.113,3.257-2.254c0.083-0.25,0.139-0.529,0.139-0.779V185.008z"/>
	<path fill="#FFFFFF" d="M639.771,182.614c0-1.587-0.027-2.95-0.111-4.202h2.144l0.083,2.644h0.111c0.613-1.81,2.088-2.95,3.73-2.95
		c0.277,0,0.473,0.027,0.695,0.084v2.31c-0.25-0.056-0.501-0.083-0.835-0.083c-1.726,0-2.95,1.308-3.284,3.145
		c-0.056,0.334-0.111,0.724-0.111,1.141v7.182h-2.422V182.614z"/>
	<path fill="#FFFFFF" d="M648.399,190.463c0-1.002,0.695-1.726,1.643-1.726c1.002,0,1.642,0.724,1.642,1.726
		c0,0.975-0.64,1.726-1.642,1.726C649.067,192.188,648.399,191.438,648.399,190.463z M649.095,186.482l-0.389-13.359h2.672
		l-0.391,13.359H649.095z"/>
</g>
<polygon fill="#DC1431" stroke="#000000" stroke-miterlimit="10" points="103.538,101.895 100.347,101.427 98.873,103.676 
	103.184,104.308 "/>
<polygon fill="#DC1431" stroke="#000000" stroke-miterlimit="10" points="108.365,102.602 111.765,103.101 112.316,105.646 
	108.011,105.015 "/>
<polygon fill="#DC1431" stroke="#000000" stroke-miterlimit="10" points="107.126,111.049 112.513,111.839 112.886,114.358 
	106.773,113.462 "/>
<polyline fill="#DC1431" stroke="#000000" stroke-miterlimit="10" points="113.783,125.584 105.181,124.322 105.535,121.908 
	113.418,123.064 "/>
<polygon fill="#DC1431" stroke="#000000" stroke-miterlimit="10" points="102.3,110.342 96.865,109.545 95.96,111.877 
	101.946,112.754 "/>
<polygon fill="#DC1431" stroke="#000000" stroke-miterlimit="10" points="100.354,123.615 100.708,121.199 92.318,119.969 
	90.881,122.226 "/>
<polyline fill="#DC1431" stroke="#000000" stroke-miterlimit="10" points="114.701,134.346 103.943,132.768 103.589,135.182 
	107.451,135.748 108.82,166.764 99.167,165.349 98.814,167.762 118.507,170.648 "/>
<polygon fill="#DC1431" stroke="#000000" stroke-miterlimit="10" points="99.117,132.062 88.324,130.479 74.228,164.158 
	93.987,167.055 94.34,164.641 84.687,163.227 94.902,133.908 98.761,134.475 "/>
<polyline fill="#DC1431" stroke="#000000" stroke-miterlimit="10" points="119.557,180.662 97.4,177.414 97.753,175.002 
	119.294,178.159 "/>
<polygon fill="#DC1431" stroke="#000000" stroke-miterlimit="10" points="92.925,174.294 71.311,171.127 70.339,173.448 
	92.572,176.707 "/>
<path fill="#DC1431" stroke="#000000" stroke-miterlimit="10" d="M95.984,187.068"/>
<polyline fill="#DC1431" stroke="#000000" stroke-miterlimit="10" points="120.607,190.678 95.984,187.068 95.63,189.482 
	120.87,193.182 "/>
<polygon fill="#DC1431" stroke="#000000" stroke-miterlimit="10" points="91.158,186.36 66.453,182.738 65.478,185.062 
	90.802,188.774 "/>
<path id="fill" fill="#DC1431" d="M137.187,225.51l1.819-12.414c-30.679-25.145-60.379-29.498-96.532-14.149l-3.891,26.546
	L137.187,225.51z"/>
<path fill="#FFFFFF" d="M124.862,225.508l1.901-12.975l-9.091-13.658c0,0-9.944-4.799-17.556-6.363l8.547,17.369l-2.291,15.629
	L124.862,225.508z"/>
<path fill="#FFFFFF" d="M53.374,225.494l3.58-24.426l10.065-9.797c11.807-1.622,18.625-1.135,18.625-1.135l-10.613,13.738
	l-3.17,21.635L53.374,225.494z"/>
<polyline fill="none" stroke="#000000" stroke-miterlimit="10" points="117.672,198.875 126.763,212.533 124.862,225.508 
	106.375,225.504 108.664,209.881 100.117,192.512 "/>
<path fill="#FFFFFF" stroke="#000000" stroke-miterlimit="10" d="M85.673,190.141l-10.643,13.734l-3.168,21.623l-18.489-0.004
	l3.58-24.426l10.065-9.797"/>
<polygon fill="#DC1431" points="94.57,196.721 109.414,95.448 110.64,95.627 121.683,200.941 127.373,204.535 116.048,95.593 
	112.878,85.268 104.189,83.995 98.189,92.976 55.939,193.986 62.399,192.347 103.412,94.48 104.601,94.64 89.742,196.014 "/>
<path id="outer_x5F_frame_1_" fill="none" stroke="#000000" stroke-miterlimit="10" d="M137.187,225.51l1.819-12.414
	c-30.679-25.145-60.38-29.498-96.532-14.149l-3.891,26.546L137.187,225.51z"/>
<rect id="middle_x5F_leg_x5F_fix" x="90.501" y="189.772" transform="matrix(-0.9894 -0.1449 0.1449 -0.9894 157.2247 393.4705)" fill="#DC1431" width="4.88" height="2.475"/>
<polyline fill="none" stroke="#000000" stroke-miterlimit="10" points="127.373,204.535 116.048,95.593 112.878,85.268 
	104.189,83.995 98.189,92.976 55.939,193.986 "/>
<polyline fill="none" stroke="#000000" stroke-miterlimit="10" points="62.557,192.275 103.392,94.478 104.599,94.655 
	89.742,196.014 94.57,196.721 109.425,95.362 110.632,95.539 121.683,200.941 "/>
<rect x="77.584" y="86.549" transform="matrix(0.9894 0.145 -0.145 0.9894 13.8711 -14.7454)" fill="#DC1431" stroke="#000000" stroke-miterlimit="10" width="60.978" height="2.439"/>
<polygon fill="none" points="101.343,101.68 102.334,101.825 101.98,104.24 100.33,103.998 "/>
<circle fill="#DC1431" stroke="#000000" stroke-miterlimit="10" cx="117.179" cy="25.649" r="11.35"/>
<line fill="none" stroke="#000000" stroke-width="2" stroke-miterlimit="10" x1="113.203" y1="52.775" x2="115.533" y2="36.88"/>
<path fill="none" stroke="#000000" stroke-miterlimit="10" d="M118.81,122.146c0,0,12.336-23.601,13.75-33.254
	c1.026-6.999,7.84-32.131-19.357-36.117S85.32,74.819,84.294,81.818c-1.416,9.653,3.59,35.795,3.59,35.795"/>
<polygon fill="#FFFFFF" stroke="#000000" stroke-miterlimit="10" points="109.453,78.356 169.738,90.891 173.711,89.008 
	170.445,86.064 "/>
<polygon fill="#FFFFFF" stroke="#000000" stroke-miterlimit="10" points="109.453,78.356 169.531,72.125 172.474,68.858 
	168.427,67.033 "/>
<polygon fill="#FFFFFF" stroke="#000000" stroke-miterlimit="10" points="109.453,78.356 56.209,50.584 51.809,51.172 
	53.691,55.146 "/>
<polygon fill="#FFFFFF" stroke="#000000" stroke-miterlimit="10" points="109.453,78.356 48.814,68.236 44.841,70.119 
	48.107,73.062 "/>
<path fill="#FFFFFF" stroke="#000000" stroke-miterlimit="10" d="M114.568,85.516c0,0,1.363-21.247-2.957-21.88
	c-4.321-0.633-9.111,20.112-9.111,20.112L114.568,85.516z"/>
<g id="laravel">
	<path fill="#FFFFFF" d="M536.424,259.127c0.379,0.546,0.609,0.504,0.904,0.379c0.294-0.127,15.442-5.239,15.906-5.408
		c0.463-0.168,0.315-0.315,0.168-0.547s-5.197-7.09-5.449-7.49c-0.252-0.399-0.379-0.314-0.778-0.189l-16.059,4.18
		C531.116,250.051,536.045,258.579,536.424,259.127L536.424,259.127z"/>
	<path fill="#FFFFFF" d="M554.518,252.143v-8.029c-1.807,0.482-4.092,1.09-4.994,1.33
		C550.885,247.264,553.012,250.113,554.518,252.143L554.518,252.143z"/>
	<path fill="#FFFFFF" d="M549.508,235.556c-0.247,0.056-5.728,1.046-6.064,1.091c-0.338,0.045-0.226,0.236-0.091,0.428l4.823,6.617
		c0,0,5.896-1.463,6.257-1.542c0.028-0.007,0.057-0.013,0.085-0.021v-0.875c-1.071-1.359-3.992-5.06-4.244-5.406
		C549.97,235.432,549.756,235.5,549.508,235.556L549.508,235.556z"/>
	<path fill="#FFFFFF" d="M515.028,225.162c1.187-0.054,1.295,0.217,1.816,0.989l13.098,21.897l16.469-3.945
		c-0.912-1.293-5.055-7.166-5.455-7.727c-0.449-0.63,0.012-0.923,0.743-1.047c0.731-0.123,7.033-1.182,7.573-1.26
		s0.967-0.27,1.845,0.787c0.449,0.542,1.972,2.438,3.4,4.215v-10.243c0-2.503-0.89-4.645-2.667-6.422
		c-1.777-1.778-3.918-2.667-6.422-2.667h-30.298c-2.503,0-4.644,0.889-6.422,2.667c-1.02,1.02-1.745,2.159-2.181,3.417
		C509.498,225.581,514.198,225.2,515.028,225.162L515.028,225.162z"/>
	<path fill="#FFFFFF" d="M537.909,262.074c-1.389,0.419-2.012,0.629-2.917-0.634c-0.677-0.945-4.341-7.545-6.138-10.797
		c-3.399,0.89-9.621,2.515-11.416,2.944c-1.751,0.421-2.499-0.629-2.786-1.276c-0.202-0.454-5.336-11.522-8.61-18.625v25.44
		c0,2.504,0.89,4.645,2.667,6.421c1.778,1.778,3.919,2.667,6.422,2.667h30.298c2.504,0,4.645-0.889,6.422-2.667
		c1.777-1.776,2.667-3.917,2.667-6.421v-2.988C550.799,257.498,538.845,261.791,537.909,262.074L537.909,262.074z"/>
	<path fill="#FFFFFF" d="M517.482,251.039c0.491-0.113,9.715-2.32,9.913-2.363c0.196-0.041,0.322-0.154,0.112-0.52
		c-0.211-0.365-12.296-21.226-12.296-21.226c-0.112-0.19-0.08-0.255-0.383-0.239c-0.271,0.015-7.108,0.625-8.691,0.757
		c-0.047,0.329-0.074,0.667-0.087,1.01c1.606,3.29,10.831,22.313,10.883,22.468C516.99,251.094,516.989,251.15,517.482,251.039
		L517.482,251.039z"/>
</g>
<g id="angular">
	<g>
		<polygon fill="#FFFFFF" points="413.682,245.135 423.972,245.135 418.826,232.756 		"/>
		<path fill="#FFFFFF" d="M418.826,213.236l-28.176,10.048l4.298,37.257l23.878,13.225l23.881-13.225l4.296-37.257L418.826,213.236z
			 M429.814,259.422l-3.541-8.84h-14.951l-3.541,8.84h-6.568l17.613-39.498l17.554,39.498H429.814z"/>
	</g>
	<g>
		<polygon fill="#EDEDED" points="418.826,232.756 418.826,245.135 423.972,245.135 		"/>
		<polygon fill="#EDEDED" points="418.826,213.236 418.826,219.924 436.38,259.422 429.814,259.422 426.273,250.582 
			418.826,250.582 418.826,273.766 442.707,260.541 447.003,223.284 		"/>
	</g>
</g>
<g id="graphql">
	<g>
		<g>
			
				<rect x="623.838" y="216.651" transform="matrix(0.8662 0.4997 -0.4997 0.8662 202.8045 -280.3916)" fill="#FFFFFF" width="2.265" height="43.691"/>
		</g>
	</g>
	<g>
		<g>
			<rect x="612.617" y="253.826" fill="#FFFFFF" width="43.692" height="2.264"/>
		</g>
	</g>
	<g>
		<g>
			
				<rect x="612.358" y="259.293" transform="matrix(0.866 0.5 -0.5 0.866 213.9343 -277.5901)" fill="#FFFFFF" width="25.235" height="2.265"/>
		</g>
	</g>
	<g>
		<g>
			
				<rect x="631.342" y="226.409" transform="matrix(0.866 0.5 -0.5 0.866 200.0357 -291.4875)" fill="#FFFFFF" width="25.235" height="2.264"/>
		</g>
	</g>
	<g>
		<g>
			
				<rect x="623.849" y="214.915" transform="matrix(0.5002 0.8659 -0.8659 0.5002 509.3733 -427.4541)" fill="#FFFFFF" width="2.265" height="25.235"/>
		</g>
	</g>
	<g>
		<g>
			
				<rect x="622.13" y="237.364" transform="matrix(0.5 0.866 -0.866 0.5 528.5374 -438.4515)" fill="#FFFFFF" width="43.69" height="2.265"/>
		</g>
	</g>
	<g>
		<g>
			<rect x="614.35" y="231.359" fill="#FFFFFF" width="2.265" height="25.236"/>
		</g>
	</g>
	<g>
		<g>
			<rect x="652.325" y="231.359" fill="#FFFFFF" width="2.266" height="25.236"/>
		</g>
	</g>
	<g>
		<g>
			
				<rect x="642.971" y="249.44" transform="matrix(0.5001 0.866 -0.866 0.5001 547.4088 -427.4651)" fill="#FFFFFF" width="1.978" height="21.948"/>
		</g>
	</g>
	<path fill="#FFFFFF" d="M657.592,257.332c-1.31,2.277-4.229,3.055-6.508,1.745c-2.277-1.31-3.055-4.229-1.745-6.506
		c1.31-2.278,4.229-3.056,6.507-1.747C658.137,252.147,658.915,255.054,657.592,257.332"/>
	<path fill="#FFFFFF" d="M619.589,235.383c-1.31,2.279-4.229,3.057-6.508,1.747c-2.277-1.31-3.055-4.229-1.745-6.507
		c1.309-2.277,4.228-3.056,6.507-1.746C620.12,230.199,620.897,233.105,619.589,235.383"/>
	<path fill="#FFFFFF" d="M611.35,257.332c-1.31-2.278-0.532-5.185,1.745-6.508c2.278-1.309,5.185-0.531,6.507,1.747
		c1.31,2.277,0.532,5.184-1.745,6.506C615.563,260.387,612.659,259.609,611.35,257.332"/>
	<path fill="#FFFFFF" d="M649.353,235.383c-1.31-2.277-0.532-5.184,1.745-6.506c2.278-1.31,5.185-0.531,6.508,1.746
		c1.31,2.277,0.531,5.184-1.746,6.507C653.581,238.439,650.661,237.662,649.353,235.383"/>
	<path fill="#FFFFFF" d="M634.47,270.686c-2.632,0-4.76-2.128-4.76-4.761c0-2.632,2.128-4.76,4.76-4.76
		c2.633,0,4.761,2.128,4.761,4.76C639.23,268.544,637.103,270.686,634.47,270.686"/>
	<path fill="#FFFFFF" d="M634.47,226.789c-2.632,0-4.76-2.127-4.76-4.76s2.128-4.761,4.76-4.761c2.633,0,4.761,2.128,4.761,4.761
		S637.103,226.789,634.47,226.789"/>
</g>
<g id="logo_apollo_white">
	<g>
		<polygon fill="#FFFFFF" points="741.152,233.76 735.698,233.76 727.824,254.195 732.757,254.195 734.044,250.732 741.484,250.732 
			740.137,246.903 735.238,246.903 738.425,238.109 744.094,254.195 749.026,254.195 		"/>
		<g>
			<path fill="#FFFFFF" d="M758.017,260.396c-0.379,0-0.713,0.188-0.918,0.477c0,0-0.981,1.119-1.51,1.648
				c-2.239,2.238-4.846,3.996-7.746,5.223c-3.004,1.271-6.194,1.914-9.485,1.914c-3.292,0-6.482-0.643-9.485-1.914
				c-2.901-1.227-5.508-2.984-7.746-5.223c-2.239-2.238-3.996-4.846-5.224-7.746c-1.27-3.004-1.914-6.195-1.914-9.486
				c0-3.29,0.645-6.48,1.914-9.484c1.228-2.902,2.984-5.508,5.224-7.747c2.238-2.238,4.845-3.995,7.746-5.224
				c3.004-1.27,6.193-1.914,9.485-1.914c3.291,0,6.481,0.645,9.485,1.914c2.113,0.895,4.068,2.071,5.842,3.51
				c-0.096,0.278-0.148,0.577-0.148,0.889c0,1.52,1.231,2.75,2.75,2.75s2.749-1.23,2.749-2.75s-1.23-2.75-2.749-2.75
				c-0.378,0-0.737,0.076-1.064,0.214c-4.591-3.765-10.464-6.024-16.864-6.024c-14.701,0-26.619,11.917-26.619,26.619
				c0,14.701,11.918,26.619,26.619,26.619c8.224,0,15.572-3.732,20.455-9.592c0.203-0.205,0.33-0.486,0.33-0.795
				C759.142,260.9,758.639,260.396,758.017,260.396z"/>
		</g>
	</g>
</g>
</svg>
