<?xml version="1.0" encoding="utf-8"?>
<svg version="1.1" id="Layer_1" xmlns="http://www.w3.org/2000/svg" xmlns:xlink="http://www.w3.org/1999/xlink" x="0px" y="0px"
     viewBox="0 0 1000 450" style="enable-background:new 0 0 1000 450;" xml:space="preserve">
<style type="text/css">
    .text{fill: #FFFFFF;}
    .st1{fill:#DD1E33;stroke:#010101;stroke-miterlimit:10;}
    .st2{fill:#DD1E33;}
    .st3{fill:#FFFFFF;}
    .st4{fill:none;stroke:#010101;stroke-miterlimit:10;}
    .st5{fill:#FFFFFF;stroke:#010101;stroke-miterlimit:10;}
    .st6{fill:#DD1E33;stroke:#010101}
    .st7{fill:none;}
    .st8{fill:none;stroke:#010101;stroke-width:2;stroke-miterlimit:10;}



    #buoy {
        animation: floatAnimation 10s ease-in-out infinite;
        transform-origin: 350px 600px;
        z-index: 1;
        stroke-width: 0.5;
    }

    @keyframes floatAnimation {
        0% {
            transform: rotate(-5deg) translate(30px,0px);
        }
        50% {
            transform: rotate(5deg) translate(5px,5px);
        }
        100% {
            transform: rotate(-5deg) translate(30px,0px);
        }
    }

    #waves-path {
        animation: wavesAnimation 6s ease-in-out infinite;
    }
    @keyframes wavesAnimation {
        0% {
            transform: translate(-320px,0px);
        }
        50% {
            transform: translate(40px);
        }
        100% {
            transform: translate(-320px,0px);
        }
    }

    #light {
        animation: lightAnimation 2s infinite;
    }
    @keyframes lightAnimation {
        0%,50% {
            opacity: 0;
        }
        51%,100% {
            opacity: 1;
        }
    }

    #bulb {
        animation: bulbAnimation 2s infinite;
    }
    @keyframes bulbAnimation {
        0%,50% {
            fill: #CCC;
        }
        51%,100% {
            fill: #FFF;
        }
    }
</style>
    <linearGradient id="fade" gradientUnits="userSpaceOnUse" x1="891.553" y1="-49.3586" x2="58.8171" y2="533.7293" gradientTransform="matrix(1 0 0 -1 0 449.8898)">
        <stop offset="0" style="stop-color:#579FD6"/>
        <stop offset="1" style="stop-color:#14499E"/>
    </linearGradient>
    <polygon class="bg" points="0,0 1000,0 1000,344 0,450" fill="url(#fade)"/>
    <g class="text">
        <path d="M523,182c5.5,1.3,9.5,3.6,12,6.8c2.5,3.2,3.7,6.8,3.7,10.8c0,3.3-0.9,6.5-2.6,9.4c-1.7,2.9-4.1,5.3-7.3,7
            c-3.1,1.8-8.6,2.6-16.3,2.6h-20.9v-69.9h18.5c8.5,0,14.1,0.6,17,1.8c2.9,1.2,5.1,3,6.6,5.4c1.5,2.4,2.2,5,2.2,7.9
            c0,3.2-0.9,6.4-2.8,9.5C531.2,176.6,527.9,179.5,523,182z M500.7,179.2h8.7c4.5,0,7.8-0.6,10.1-1.8c2.2-1.2,4-2.9,5.4-5.2
            c1.3-2.2,2-4.5,2-6.9c0-2.6-1-4.9-3.1-6.7c-2.1-1.9-5.8-2.8-11.3-2.8h-11.8V179.2z M500.7,211.7h12.8c6,0,10.2-1.1,12.4-3.4
            c2.2-2.3,3.3-4.9,3.3-8c0-2.5-0.7-4.8-2.2-6.9c-1.4-2.1-3.6-3.8-6.4-5.2c-2.8-1.3-7.3-2-13.3-2h-6.8V211.7z"/>
            <path d="M582.4,168.4h8.4v50.3h-8.4v-8.8c-1.7,2.7-3.4,4.7-5.1,6.1c-1.7,1.3-3.4,2.4-5.2,3.1s-3.7,1-5.8,1
            c-4.7,0-8.6-1.3-11.8-3.9s-4.9-7.9-4.9-15.9v-31.9h8.4v28.4c0,7.4,1,11.8,2.9,13.3c1.9,1.5,4.4,2.3,7.2,2.3c2.5,0,4.8-0.7,7.1-2.2
            c2.2-1.5,4-3.5,5.3-6.1c1.3-2.6,1.9-6.3,1.9-11V168.4z"/>
            <path d="M625.4,220.1c-6.6,0-12.2-2.2-16.8-6.7c-4.6-4.5-7-11.1-7-19.9c0-8.8,2.3-15.4,7-19.8s10.2-6.7,16.8-6.7
            s12.1,2.2,16.8,6.7c4.6,4.5,7,11.1,7,19.8c0,8.8-2.3,15.4-7,19.9C637.5,217.9,631.9,220.1,625.4,220.1z M625.4,213.1
            c4.5,0,8.1-1.8,10.9-5.4c2.7-3.6,4.1-8.3,4.1-14.2c0-5.9-1.4-10.6-4.1-14.2s-6.4-5.4-10.9-5.4s-8.1,1.8-10.9,5.4s-4.1,8.3-4.1,14.2
            c0,5.9,1.4,10.6,4.1,14.2C617.2,211.3,620.8,213.1,625.4,213.1z"/>
            <path d="M676.3,216.5l-21.6-48.1h9.3l16.9,37.3l15.7-37.3h8.4l-21.2,50.3c-2.8,6.8-5.2,11.3-7.1,13.5
            c-1.9,2.2-4,3.8-6.1,4.7s-5,1.4-8.6,1.4h-6.3v-7h4.7c2.3,0,4.4-0.3,6.1-0.9c1.7-0.6,3.2-1.6,4.3-3s2.7-4.3,4.6-8.9L676.3,216.5z"/>
        <path d="M491.9,297.1l6.6-17.2h2.5l7,17.2h-2.6l-2-5.2h-7.2l-1.9,5.2H491.9z M496.9,290h5.8l-1.8-4.8
            c-0.5-1.4-1-2.6-1.2-3.6c-0.2,1.1-0.5,2.2-0.9,3.3L496.9,290z"/>
            <path d="M523.2,290.4v-2l7.3,0v6.4c-1.1,0.9-2.3,1.6-3.5,2c-1.2,0.4-2.4,0.7-3.7,0.7c-1.7,0-3.2-0.4-4.6-1.1
            c-1.4-0.7-2.4-1.8-3.1-3.1c-0.7-1.4-1.1-2.9-1.1-4.6c0-1.7,0.3-3.2,1-4.7c0.7-1.5,1.7-2.5,3-3.2c1.3-0.7,2.8-1.1,4.5-1.1
            c1.2,0,2.4,0.2,3.4,0.6c1,0.4,1.8,1,2.4,1.7c0.6,0.7,1,1.7,1.3,2.8l-2.1,0.6c-0.3-0.9-0.6-1.6-1-2.1c-0.4-0.5-0.9-0.9-1.6-1.2
            c-0.7-0.3-1.5-0.5-2.4-0.5c-1,0-1.9,0.2-2.7,0.5c-0.8,0.3-1.4,0.7-1.8,1.2c-0.5,0.5-0.8,1.1-1.1,1.7c-0.4,1.1-0.7,2.2-0.7,3.5
            c0,1.5,0.3,2.8,0.8,3.8s1.3,1.8,2.3,2.3c1,0.5,2.1,0.8,3.2,0.8c1,0,1.9-0.2,2.9-0.6c0.9-0.4,1.6-0.8,2.1-1.2v-3.2H523.2z"/>
            <path d="M533.5,297.1v-12.5h1.9v1.9c0.5-0.9,0.9-1.5,1.3-1.7c0.4-0.3,0.9-0.4,1.4-0.4c0.7,0,1.4,0.2,2.2,0.7l-0.7,2
            c-0.5-0.3-1-0.5-1.5-0.5c-0.5,0-0.9,0.1-1.2,0.4s-0.6,0.7-0.8,1.2c-0.2,0.8-0.4,1.6-0.4,2.5v6.5H533.5z"/>
            <path d="M549.7,295.6c-0.8,0.7-1.5,1.1-2.3,1.4c-0.7,0.3-1.5,0.4-2.3,0.4c-1.4,0-2.4-0.3-3.2-1
            c-0.7-0.7-1.1-1.5-1.1-2.6c0-0.6,0.1-1.2,0.4-1.7s0.6-0.9,1.1-1.2c0.4-0.3,1-0.5,1.5-0.7c0.4-0.1,1-0.2,1.9-0.3
            c1.7-0.2,3-0.4,3.8-0.7c0-0.3,0-0.5,0-0.6c0-0.9-0.2-1.5-0.6-1.8c-0.5-0.5-1.3-0.7-2.4-0.7c-1,0-1.7,0.2-2.2,0.5
            c-0.5,0.3-0.8,1-1,1.8l-2.1-0.3c0.2-0.9,0.5-1.6,0.9-2.1c0.4-0.5,1.1-1,1.9-1.3c0.8-0.3,1.8-0.4,2.8-0.4c1.1,0,1.9,0.1,2.6,0.4
            c0.7,0.2,1.2,0.6,1.5,0.9s0.5,0.9,0.7,1.4c0.1,0.4,0.1,1,0.1,1.9v2.8c0,2,0,3.2,0.1,3.7c0.1,0.5,0.3,1,0.5,1.5h-2.2
            C549.9,296.7,549.8,296.2,549.7,295.6z M549.5,290.9c-0.8,0.3-1.9,0.6-3.4,0.8c-0.9,0.1-1.5,0.3-1.8,0.4s-0.6,0.4-0.8,0.7
            c-0.2,0.3-0.3,0.6-0.3,1c0,0.6,0.2,1,0.6,1.4c0.4,0.4,1,0.6,1.9,0.6c0.8,0,1.5-0.2,2.2-0.5s1.1-0.8,1.4-1.5
            c0.2-0.5,0.3-1.2,0.3-2.1V290.9z"/>
            <path d="M554.9,301.9v-17.2h1.9v1.6c0.5-0.6,1-1.1,1.5-1.4c0.6-0.3,1.3-0.5,2.1-0.5c1.1,0,2,0.3,2.8,0.8
            c0.8,0.5,1.4,1.3,1.8,2.3c0.4,1,0.6,2.1,0.6,3.3c0,1.3-0.2,2.4-0.7,3.4c-0.5,1-1.1,1.8-2,2.3c-0.9,0.5-1.8,0.8-2.8,0.8
            c-0.7,0-1.3-0.1-1.9-0.4c-0.6-0.3-1-0.7-1.4-1.1v6.1H554.9z M556.8,290.9c0,1.6,0.3,2.8,1,3.6c0.6,0.8,1.4,1.1,2.4,1.1
            c0.9,0,1.7-0.4,2.4-1.2c0.7-0.8,1-2,1-3.7c0-1.6-0.3-2.8-1-3.6c-0.7-0.8-1.4-1.2-2.3-1.2c-0.9,0-1.7,0.4-2.4,1.3
            C557.2,288.1,556.8,289.3,556.8,290.9z"/>
            <path d="M568.3,297.1v-17.2h2.1v6.2c1-1.1,2.2-1.7,3.7-1.7c0.9,0,1.7,0.2,2.4,0.5c0.7,0.4,1.2,0.9,1.5,1.5
            c0.3,0.6,0.4,1.6,0.4,2.8v7.9h-2.1v-7.9c0-1.1-0.2-1.8-0.7-2.3c-0.5-0.5-1.1-0.7-1.9-0.7c-0.6,0-1.2,0.2-1.8,0.5
            c-0.6,0.3-0.9,0.8-1.2,1.3c-0.2,0.6-0.4,1.3-0.4,2.3v6.8H568.3z"/>
            <path d="M594.9,295.3c1.1,0.7,2,1.3,2.9,1.6l-0.7,1.6c-1.2-0.4-2.5-1.1-3.7-2.1c-1.3,0.7-2.7,1.1-4.2,1.1
            c-1.6,0-3-0.4-4.2-1.1c-1.3-0.8-2.2-1.8-2.9-3.2c-0.7-1.4-1-2.9-1-4.6c0-1.7,0.3-3.2,1-4.6s1.7-2.5,2.9-3.2
            c1.3-0.7,2.7-1.1,4.3-1.1c1.6,0,3,0.4,4.3,1.1c1.3,0.8,2.2,1.8,2.9,3.2c0.7,1.4,1,2.9,1,4.6c0,1.4-0.2,2.7-0.6,3.8
            S595.8,294.4,594.9,295.3z M589.9,292.4c1.3,0.4,2.4,0.9,3.2,1.6c1.3-1.2,2-3.1,2-5.5c0-1.4-0.2-2.6-0.7-3.6
            c-0.5-1-1.2-1.8-2.1-2.4c-0.9-0.6-1.9-0.9-3.1-0.9c-1.7,0-3.1,0.6-4.2,1.7c-1.1,1.2-1.7,2.9-1.7,5.2c0,2.2,0.6,4,1.7,5.1
            c1.1,1.2,2.5,1.8,4.2,1.8c0.8,0,1.6-0.2,2.3-0.5c-0.7-0.5-1.5-0.8-2.3-1L589.9,292.4z"/>
            <path d="M600.5,297.1v-17.2h2.3v15.2h8.5v2H600.5z"/>
            <path d="M627.6,292.5l2.1,0.3c-0.2,1.4-0.8,2.6-1.7,3.4c-0.9,0.8-2.1,1.2-3.4,1.2c-1.7,0-3.1-0.6-4.1-1.7
            c-1-1.1-1.6-2.7-1.6-4.8c0-1.3,0.2-2.5,0.7-3.5c0.4-1,1.1-1.8,2-2.3c0.9-0.5,1.9-0.8,3-0.8c1.4,0,2.5,0.3,3.3,1
            c0.9,0.7,1.4,1.7,1.7,2.9l-2.1,0.3c-0.2-0.8-0.5-1.5-1-1.9c-0.5-0.4-1.1-0.6-1.8-0.6c-1.1,0-1.9,0.4-2.6,1.1c-0.7,0.8-1,2-1,3.6
            c0,1.7,0.3,2.9,1,3.6c0.6,0.8,1.5,1.1,2.5,1.1c0.8,0,1.5-0.3,2.1-0.8C627.1,294.4,627.4,293.6,627.6,292.5z"/>
            <path d="M631.4,297.1v-17.2h2.1v17.2H631.4z"/>
            <path d="M636.8,282.3v-2.4h2.1v2.4H636.8z M636.8,297.1v-12.5h2.1v12.5H636.8z"/>
            <path d="M650.6,293.1l2.2,0.3c-0.3,1.3-1,2.3-1.9,3c-0.9,0.7-2.1,1.1-3.6,1.1c-1.8,0-3.3-0.6-4.3-1.7
            c-1.1-1.1-1.6-2.7-1.6-4.7c0-2.1,0.5-3.7,1.6-4.9c1.1-1.2,2.5-1.7,4.2-1.7c1.7,0,3,0.6,4.1,1.7c1.1,1.1,1.6,2.7,1.6,4.8
            c0,0.1,0,0.3,0,0.6h-9.3c0.1,1.4,0.5,2.4,1.2,3.1c0.7,0.7,1.6,1.1,2.6,1.1c0.8,0,1.4-0.2,2-0.6C649.9,294.6,650.3,294,650.6,293.1z
             M643.7,289.7h7c-0.1-1-0.4-1.8-0.8-2.4c-0.7-0.8-1.5-1.2-2.6-1.2c-1,0-1.8,0.3-2.4,1C644.2,287.7,643.8,288.6,643.7,289.7z"/>
            <path d="M655.5,297.1v-12.5h1.9v1.8c0.9-1.4,2.2-2.1,4-2.1c0.8,0,1.4,0.1,2.1,0.4c0.6,0.3,1.1,0.6,1.4,1.1
            c0.3,0.4,0.5,1,0.7,1.6c0.1,0.4,0.1,1.1,0.1,2.1v7.7h-2.1v-7.6c0-0.9-0.1-1.5-0.2-1.9c-0.2-0.4-0.5-0.8-0.9-1
            c-0.4-0.3-0.9-0.4-1.5-0.4c-0.9,0-1.7,0.3-2.3,0.9s-1,1.7-1,3.2v6.8H655.5z"/>
            <path d="M673.4,295.2l0.3,1.9c-0.6,0.1-1.1,0.2-1.6,0.2c-0.8,0-1.4-0.1-1.8-0.4s-0.7-0.6-0.9-1
            c-0.2-0.4-0.3-1.2-0.3-2.5v-7.2h-1.5v-1.6h1.5v-3.1l2.1-1.3v4.3h2.1v1.6h-2.1v7.3c0,0.6,0,1,0.1,1.2s0.2,0.3,0.4,0.4
            s0.4,0.2,0.7,0.2C672.8,295.3,673.1,295.3,673.4,295.2z"/>
            <path d="M682.7,297.1v-10.8h-1.9v-1.6h1.9v-1.3c0-0.8,0.1-1.5,0.2-1.9c0.2-0.5,0.6-1,1.1-1.3s1.2-0.5,2.2-0.5
            c0.6,0,1.2,0.1,2,0.2l-0.3,1.8c-0.4-0.1-0.9-0.1-1.2-0.1c-0.6,0-1.1,0.1-1.4,0.4s-0.4,0.8-0.4,1.5v1.1h2.4v1.6h-2.4v10.8H682.7z"/>
            <path d="M688.1,290.9c0-2.3,0.6-4,1.9-5.1c1.1-0.9,2.4-1.4,3.9-1.4c1.7,0,3.1,0.6,4.2,1.7c1.1,1.1,1.6,2.7,1.6,4.6
            c0,1.6-0.2,2.9-0.7,3.8c-0.5,0.9-1.2,1.6-2.1,2.1c-0.9,0.5-1.9,0.8-3,0.8c-1.7,0-3.2-0.6-4.2-1.7
            C688.6,294.6,688.1,293,688.1,290.9z M690.2,290.9c0,1.6,0.3,2.8,1,3.6c0.7,0.8,1.6,1.2,2.6,1.2c1,0,1.9-0.4,2.6-1.2
            c0.7-0.8,1-2,1-3.6c0-1.5-0.3-2.7-1-3.5c-0.7-0.8-1.6-1.2-2.6-1.2c-1.1,0-1.9,0.4-2.6,1.2C690.6,288.1,690.2,289.3,690.2,290.9z"/>
            <path d="M702.2,297.1v-12.5h1.9v1.9c0.5-0.9,0.9-1.5,1.3-1.7c0.4-0.3,0.9-0.4,1.4-0.4c0.7,0,1.4,0.2,2.2,0.7l-0.7,2
            c-0.5-0.3-1-0.5-1.5-0.5c-0.5,0-0.9,0.1-1.2,0.4s-0.6,0.7-0.8,1.2c-0.2,0.8-0.4,1.6-0.4,2.5v6.5H702.2z"/>
            <path d="M713.9,297.1l6.6-17.2h2.5l7,17.2h-2.6l-2-5.2h-7.2l-1.9,5.2H713.9z M718.9,290h5.8l-1.8-4.8
            c-0.5-1.4-1-2.6-1.2-3.6c-0.2,1.1-0.5,2.2-0.9,3.3L718.9,290z"/>
            <path d="M731.6,297.1v-12.5h1.9v1.8c0.9-1.4,2.2-2.1,4-2.1c0.8,0,1.4,0.1,2.1,0.4c0.6,0.3,1.1,0.6,1.4,1.1
            c0.3,0.4,0.5,1,0.7,1.6c0.1,0.4,0.1,1.1,0.1,2.1v7.7h-2.1v-7.6c0-0.9-0.1-1.5-0.2-1.9c-0.2-0.4-0.5-0.8-0.9-1
            c-0.4-0.3-0.9-0.4-1.5-0.4c-0.9,0-1.7,0.3-2.3,0.9s-1,1.7-1,3.2v6.8H731.6z"/>
            <path d="M744.5,298.1l2.1,0.3c0.1,0.6,0.3,1.1,0.7,1.4c0.5,0.4,1.2,0.6,2.1,0.6c1,0,1.7-0.2,2.3-0.6
            c0.5-0.4,0.9-0.9,1.1-1.6c0.1-0.4,0.2-1.3,0.2-2.7c-0.9,1.1-2.1,1.6-3.4,1.6c-1.7,0-3-0.6-4-1.9c-0.9-1.2-1.4-2.7-1.4-4.4
            c0-1.2,0.2-2.3,0.6-3.3c0.4-1,1.1-1.8,1.9-2.3c0.8-0.5,1.8-0.8,2.9-0.8c1.5,0,2.7,0.6,3.6,1.8v-1.5h1.9v10.8c0,1.9-0.2,3.3-0.6,4.1
            c-0.4,0.8-1,1.4-1.9,1.9c-0.9,0.5-1.9,0.7-3.2,0.7c-1.5,0-2.7-0.3-3.6-1C744.9,300.5,744.5,299.5,744.5,298.1z M746.3,290.7
            c0,1.6,0.3,2.8,1,3.6c0.6,0.8,1.5,1.1,2.4,1.1c1,0,1.8-0.4,2.4-1.1c0.7-0.7,1-1.9,1-3.5c0-1.5-0.3-2.7-1-3.4
            c-0.7-0.8-1.5-1.2-2.4-1.2c-0.9,0-1.7,0.4-2.4,1.1C746.6,288,746.3,289.2,746.3,290.7z"/>
            <path d="M766.4,297.1v-1.8c-1,1.4-2.3,2.1-4,2.1c-0.7,0-1.4-0.1-2.1-0.4c-0.6-0.3-1.1-0.6-1.4-1.1
            c-0.3-0.4-0.5-0.9-0.7-1.6c-0.1-0.4-0.1-1.1-0.1-2v-7.7h2.1v6.9c0,1.1,0,1.8,0.1,2.2c0.1,0.6,0.4,1,0.8,1.3s1,0.5,1.6,0.5
            s1.2-0.2,1.8-0.5s0.9-0.8,1.2-1.3s0.3-1.4,0.3-2.4v-6.7h2.1v12.5H766.4z"/>
            <path d="M771.6,297.1v-17.2h2.1v17.2H771.6z"/>
            <path d="M785.1,295.6c-0.8,0.7-1.5,1.1-2.3,1.4c-0.7,0.3-1.5,0.4-2.3,0.4c-1.4,0-2.4-0.3-3.2-1
            c-0.7-0.7-1.1-1.5-1.1-2.6c0-0.6,0.1-1.2,0.4-1.7c0.3-0.5,0.6-0.9,1.1-1.2s1-0.5,1.5-0.7c0.4-0.1,1-0.2,1.9-0.3
            c1.7-0.2,3-0.4,3.8-0.7c0-0.3,0-0.5,0-0.6c0-0.9-0.2-1.5-0.6-1.8c-0.5-0.5-1.3-0.7-2.4-0.7c-1,0-1.7,0.2-2.2,0.5
            c-0.5,0.3-0.8,1-1,1.8l-2.1-0.3c0.2-0.9,0.5-1.6,0.9-2.1c0.4-0.5,1.1-1,1.9-1.3c0.8-0.3,1.8-0.4,2.8-0.4c1.1,0,1.9,0.1,2.6,0.4
            c0.7,0.2,1.2,0.6,1.5,0.9s0.5,0.9,0.7,1.4c0.1,0.4,0.1,1,0.1,1.9v2.8c0,2,0,3.2,0.1,3.7c0.1,0.5,0.3,1,0.5,1.5h-2.2
            C785.3,296.7,785.2,296.2,785.1,295.6z M784.9,290.9c-0.8,0.3-1.9,0.6-3.4,0.8c-0.9,0.1-1.5,0.3-1.8,0.4s-0.6,0.4-0.8,0.7
            c-0.2,0.3-0.3,0.6-0.3,1c0,0.6,0.2,1,0.6,1.4s1,0.6,1.9,0.6c0.8,0,1.5-0.2,2.2-0.5c0.6-0.4,1.1-0.8,1.4-1.5
            c0.2-0.5,0.3-1.2,0.3-2.1V290.9z"/>
            <path d="M790.3,297.1v-12.5h1.9v1.9c0.5-0.9,0.9-1.5,1.3-1.7c0.4-0.3,0.9-0.4,1.4-0.4c0.7,0,1.4,0.2,2.2,0.7l-0.7,2
            c-0.5-0.3-1-0.5-1.5-0.5c-0.5,0-0.9,0.1-1.2,0.4s-0.6,0.7-0.8,1.2c-0.2,0.8-0.4,1.6-0.4,2.5v6.5H790.3z"/>
    </g>

    <defs>
        <clipPath id="waves">
		    <path id="waves-path" d="M181.73,61.28h593.99V336c0,0-98.01-6.43-185.13-2.97s-170.28,9.9-251.46,9.4S181.73,336,181.73,336V61.28z"/>
        </clipPath>
	</defs>
    <g clip-path="url(#waves)">
		<g id="buoy">
			<polygon class="st1" points="318.37,178.19 314.19,177.57 312.26,180.52 317.91,181.35 			"/>
            <polygon class="st1" points="324.7,179.11 329.15,179.77 329.87,183.1 324.23,182.28 			"/>
            <polygon class="st1" points="323.07,190.18 330.13,191.22 330.62,194.52 322.61,193.35 			"/>
            <polyline class="st1" points="331.79,209.23 320.52,207.58 320.99,204.41 331.32,205.93 			"/>
            <polygon class="st1" points="316.75,189.26 309.63,188.21 308.44,191.27 316.29,192.42 			"/>
            <polygon class="st1" points="314.2,206.65 314.66,203.48 303.67,201.87 301.79,204.83 			"/>
            <polyline class="st1" points="333,220.71 318.9,218.64 318.44,221.81 323.5,222.55 325.29,263.19 312.64,261.33 312.18,264.5
				337.99,268.28 			"/>
            <polygon class="st1" points="312.58,217.72 298.44,215.64 279.96,259.77 305.86,263.57 306.32,260.41 293.67,258.56
				307.05,220.14 312.11,220.88 			"/>
            <polyline class="st1" points="339.36,281.4 310.33,277.14 310.79,273.98 339.02,278.12 			"/>
            <polygon class="st1" points="304.47,273.06 276.14,268.91 274.87,271.95 304,276.22 			"/>
            <path class="st1" d="M308.48,289.8"/>
            <polyline class="st1" points="340.74,294.52 308.48,289.8 308.01,292.96 341.08,297.8 			"/>
            <polygon class="st1" points="302.15,288.87 269.78,284.12 268.5,287.17 301.68,292.03 			"/>
            <path id="fill" class="st2" d="M360.29,356.02l4.55-32.12c-40.2-32.95-79.12-38.65-126.49-18.54l-7.71,50.66H360.29z"/>
            <path class="st3" d="M343.99,356.02l4.82-32.85l-11.91-17.89c0,0-13.03-6.29-23.01-8.34l11.2,22.76l-5.34,36.4L343.99,356.02z"/>
            <path class="st3" d="M252.64,340.15l4.69-32.01l13.19-12.84c15.47-2.12,24.41-1.48,24.41-1.48l-13.91,18l-4.15,28.35
				L252.64,340.15z"/>
            <polyline class="st4" points="336.89,305.27 348.8,323.16 343.99,356.02 319.75,356.09 325.09,319.69 313.89,296.93 			"/>
            <path class="st5" d="M294.96,293.82l-13.94,18l-6.48,44.2h-24.23l7.02-47.88l13.19-12.84"/>
            <polygon class="st2" points="306.62,302.44 326.07,169.74 327.68,169.98 342.15,307.98 349.6,312.68 334.76,169.93 330.61,156.4
				319.23,154.74 311.36,166.5 256,298.86 264.47,296.71 318.21,168.47 319.77,168.68 300.29,301.52 			"/>
            <path id="outer_x5F_frame_1_" class="st4" d="M360.29,356.02l4.55-32.12c-40.2-32.95-79.12-38.65-126.49-18.54l-7.71,50.66
				H360.29z"/>

            <rect id="middle_x5F_leg_x5F_fix" x="302.87" y="291.77" transform="matrix(0.145 -0.9894 0.9894 0.145 -31.5073 553.4666)" class="st2" width="3.24" height="6.39"/>
            <polyline class="st4" points="349.6,312.68 334.76,169.93 330.61,156.4 319.23,154.74 311.36,166.5 256,298.86 			"/>
            <polyline class="st4" points="264.67,296.62 318.18,168.47 319.76,168.7 300.29,301.52 306.62,302.44 326.09,169.63
				327.67,169.86 342.15,307.98 			"/>

            <rect x="322.71" y="119.73" transform="matrix(0.145 -0.9894 0.9894 0.145 119.2958 457.4061)" class="st6" width="3.19" height="79.89"/>
            <polygon class="st7" points="315.49,177.91 316.8,178.1 316.33,181.26 314.17,180.95 			"/>
            <circle class="st1" cx="336.24" cy="78.28" r="14.87"/>
            <line class="st8" x1="331.04" y1="113.82" x2="334.09" y2="92.99"/>
            <path class="st4" d="M338.38,204.73c0,0,16.16-30.92,18.02-43.57c1.34-9.17,10.27-42.1-25.36-47.33
				c-35.64-5.22-36.54,28.88-37.88,38.06c-1.86,12.65,4.7,46.91,4.7,46.91"/>
            <g id="light">
				<polygon class="st5" points="326.12,147.35 405.12,163.77 410.32,161.3 406.04,157.44 				"/>
                <polygon class="st5" points="326.12,147.35 404.84,139.18 408.7,134.9 403.4,132.51 				"/>
                <polygon class="st5" points="326.12,147.35 256.35,110.95 250.59,111.73 253.06,116.93 				"/>
                <polygon class="st5" points="326.12,147.35 246.67,134.08 241.46,136.55 245.74,140.41 				"/>
			</g>
            <path id="bulb" class="st5" d="M332.82,156.73c0,0,1.79-27.84-3.87-28.67c-5.66-0.83-11.94,26.35-11.94,26.35L332.82,156.73z"/>
		</g>
	</g>
</svg>
