<svg xmlns="http://www.w3.org/2000/svg" width="1417.32" height="1417.32" viewBox="0 0 1417.32 1417.32"><path fill="#C61130" d="M0 0h1417.322v1417.322H0z"/><path d="M515.984 551.017l-70.064 70.061v245.229h70.064V743.693h105.098v122.613h70.064v-315.29H515.984zm105.098 122.612H515.984v-52.548h105.098v52.548zM340.823 551.017v122.612H235.727V551.017l-70.065 70.061v245.229h70.065V743.693h105.096v122.614h70.064v-315.29zm910.837 70.064v-70.064h-245.224v315.29h70.064V743.693h105.096l70.064-70.064H1076.5v-52.548zm-280.257 0v-70.064H726.177v315.29h70.064V743.693h105.098l70.064-70.064H796.241v-52.548z" fill="#FFF"/></svg>