<svg xmlns="http://www.w3.org/2000/svg" width="300" height="80" viewBox="0 0 300 80"><path d="M35.938 65.344c-6.427 7.266-13.004 10.9-19.733 10.9-4.138 0-7.478-1.186-10.018-3.559-2.541-2.371-3.81-5.273-3.81-8.705 0-2.254.572-6.123 1.716-11.607l6.46-30.938h9.135l-7.167 34.268c-.605 2.861-.909 5.082-.909 6.662 0 2.02.614 3.592 1.842 4.719 1.228 1.127 3.036 1.691 5.425 1.691 2.557 0 5.055-.623 7.495-1.867a19.96 19.96 0 0 0 6.309-5.047c1.766-2.121 3.205-4.627 4.315-7.52.739-1.852 1.598-5.098 2.574-9.741l4.845-23.165h9.135L42.348 75.033H33.92l2.018-9.689zm42.242 2.269l-1.514 7.471c-2.188.57-4.307.857-6.359.857-3.634 0-6.528-.893-8.681-2.676-1.615-1.344-2.422-3.18-2.422-5.5 0-1.178.437-3.887 1.312-8.125l6.51-31.139H59.81l1.463-7.066h7.217l2.776-13.172 10.447-6.309-4.088 19.48h8.983L85.094 28.5h-8.933l-6.208 29.624c-.774 3.77-1.161 6.023-1.161 6.764 0 1.078.311 1.9.934 2.473s1.641.857 3.054.857c2.018.001 3.818-.2 5.4-.605zm46.733-10.799l8.882.908c-1.279 4.408-4.214 8.596-8.807 12.566-4.593 3.971-10.068 5.955-16.427 5.955-3.971 0-7.613-.918-10.926-2.75-3.314-1.834-5.838-4.5-7.57-8-1.733-3.498-2.599-7.486-2.599-11.961 0-5.854 1.354-11.531 4.062-17.033 2.708-5.501 6.216-9.589 10.523-12.264 4.306-2.675 8.966-4.012 13.979-4.012 6.392 0 11.498 1.985 15.317 5.955 3.818 3.971 5.728 9.387 5.728 16.251 0 2.624-.236 5.316-.707 8.075H96.903a22.191 22.191 0 0 0-.202 2.826c0 5.014 1.152 8.84 3.457 11.48 2.304 2.643 5.122 3.963 8.453 3.963 3.129 0 6.208-1.027 9.236-3.08 3.028-2.048 5.383-5.009 7.066-8.879zM98.367 43.541h30.079c.033-.941.05-1.615.05-2.02 0-4.575-1.144-8.082-3.432-10.522-2.289-2.439-5.232-3.659-8.832-3.659-3.903 0-7.461 1.346-10.674 4.038-3.213 2.692-5.61 6.746-7.191 12.163zm81.656 11.961l9.135.959c-2.287 6.695-5.543 11.666-9.766 14.912-4.223 3.248-9.025 4.871-14.408 4.871-5.82 0-10.539-1.885-14.156-5.652-3.618-3.768-5.426-9.033-5.426-15.797 0-5.854 1.161-11.607 3.482-17.26s5.644-9.95 9.968-12.895c4.322-2.944 9.26-4.416 14.811-4.416 5.754 0 10.312 1.624 13.678 4.87 3.363 3.247 5.047 7.545 5.047 12.895l-8.982.605c-.035-3.398-1.02-6.056-2.953-7.974-1.936-1.918-4.484-2.877-7.646-2.877-3.668 0-6.848 1.161-9.537 3.482-2.693 2.321-4.805 5.846-6.334 10.573-1.531 4.728-2.297 9.278-2.297 13.651 0 4.576 1.01 8.008 3.027 10.295 2.02 2.289 4.51 3.432 7.471 3.432 2.959 0 5.795-1.127 8.504-3.381 2.707-2.252 4.836-5.684 6.382-10.293zm51.68 0l9.135.959c-2.289 6.695-5.545 11.666-9.766 14.912-4.223 3.248-9.025 4.871-14.408 4.871-5.822 0-10.541-1.885-14.156-5.652-3.617-3.768-5.426-9.033-5.426-15.797 0-5.854 1.16-11.607 3.482-17.26 2.32-5.652 5.643-9.95 9.967-12.895 4.322-2.944 9.262-4.416 14.812-4.416 5.754 0 10.312 1.624 13.676 4.87 3.365 3.247 5.047 7.545 5.047 12.895l-8.982.605c-.033-3.398-1.018-6.056-2.953-7.974-1.934-1.918-4.482-2.877-7.645-2.877-3.668 0-6.848 1.161-9.539 3.482s-4.803 5.846-6.334 10.573c-1.531 4.728-2.297 9.278-2.297 13.651 0 4.576 1.01 8.008 3.029 10.295 2.018 2.289 4.508 3.432 7.469 3.432s5.795-1.127 8.504-3.381c2.707-2.252 4.836-5.684 6.385-10.293zm50.82 12.869c-3.162 2.725-6.207 4.719-9.133 5.98-2.928 1.262-6.057 1.893-9.389 1.893-4.945 0-8.932-1.455-11.961-4.365-3.027-2.91-4.541-6.637-4.541-11.18 0-2.994.682-5.643 2.043-7.948a16.042 16.042 0 0 1 5.426-5.552c2.254-1.396 5.014-2.396 8.277-3.002 2.051-.404 5.945-.724 11.684-.959 5.734-.235 9.848-.841 12.338-1.817.707-2.489 1.061-4.559 1.061-6.208 0-2.12-.773-3.785-2.322-4.996-2.119-1.682-5.215-2.523-9.285-2.523-3.836 0-6.973.85-9.412 2.549-2.439 1.699-4.215 4.113-5.324 7.242l-9.236-.807c1.885-5.316 4.871-9.387 8.959-12.213s9.242-4.239 15.467-4.239c6.629 0 11.877 1.582 15.746 4.744 2.961 2.355 4.441 5.417 4.441 9.185 0 2.86-.42 6.174-1.262 9.942l-2.977 13.324c-.943 4.238-1.414 7.688-1.414 10.346 0 1.682.371 4.105 1.111 7.268h-9.236c-.504-1.752-.857-3.973-1.061-6.664zm3.383-20.49c-1.279.505-2.65.893-4.113 1.16-1.465.271-3.912.556-7.344.859-5.316.471-9.068 1.068-11.254 1.791-2.188.724-3.836 1.876-4.945 3.457-1.111 1.582-1.666 3.33-1.666 5.248 0 2.559.883 4.66 2.65 6.309 1.766 1.648 4.279 2.473 7.545 2.473 3.027 0 5.938-.799 8.73-2.396 2.791-1.598 4.996-3.826 6.611-6.688 1.616-2.86 2.878-6.93 3.786-12.213z" fill="#1DBB99"/></svg>