<?xml version="1.0" encoding="utf-8"?>
<!-- Generator: Adobe Illustrator 16.0.0, SVG Export Plug-In . SVG Version: 6.00 Build 0)  -->
<!DOCTYPE svg PUBLIC "-//W3C//DTD SVG 1.1//EN" "http://www.w3.org/Graphics/SVG/1.1/DTD/svg11.dtd">
<svg version="1.1" id="Layer_1" xmlns="http://www.w3.org/2000/svg" xmlns:xlink="http://www.w3.org/1999/xlink" x="0px" y="0px"
	 width="300px" height="80px" viewBox="0 0 300 80" enable-background="new 0 0 300 80" xml:space="preserve">
<g>
	<path fill="#1DBB99" d="M35.938,65.344c-6.427,7.266-13.004,10.9-19.733,10.9c-4.138,0-7.478-1.186-10.018-3.559
		c-2.541-2.371-3.81-5.273-3.81-8.705c0-2.254,0.572-6.123,1.716-11.607l6.46-30.938h9.135l-7.167,34.268
		c-0.605,2.861-0.909,5.082-0.909,6.662c0,2.02,0.614,3.592,1.842,4.719c1.228,1.127,3.036,1.691,5.425,1.691
		c2.557,0,5.055-0.623,7.495-1.867c2.439-1.246,4.542-2.928,6.309-5.047c1.766-2.121,3.205-4.627,4.315-7.52
		c0.739-1.852,1.598-5.098,2.574-9.741l4.845-23.165h9.135L42.348,75.033h-8.428L35.938,65.344z"/>
	<path fill="#1DBB99" d="M78.18,67.613l-1.514,7.471c-2.188,0.57-4.307,0.857-6.359,0.857c-3.634,0-6.528-0.893-8.681-2.676
		c-1.615-1.344-2.422-3.18-2.422-5.5c0-1.178,0.437-3.887,1.312-8.125l6.51-31.139H59.81l1.463-7.066h7.217l2.776-13.172
		l10.447-6.309l-4.088,19.48h8.983l-1.514,7.066h-8.933l-6.208,29.624c-0.774,3.77-1.161,6.023-1.161,6.764
		c0,1.078,0.311,1.9,0.934,2.473s1.641,0.857,3.054,0.857C74.798,68.219,76.598,68.018,78.18,67.613z"/>
	<path fill="#1DBB99" d="M124.913,56.814l8.882,0.908c-1.279,4.408-4.214,8.596-8.807,12.566
		c-4.593,3.971-10.068,5.955-16.427,5.955c-3.971,0-7.613-0.918-10.926-2.75c-3.314-1.834-5.838-4.5-7.57-8
		c-1.733-3.498-2.599-7.486-2.599-11.961c0-5.854,1.354-11.531,4.062-17.033c2.708-5.501,6.216-9.589,10.523-12.264
		c4.306-2.675,8.966-4.012,13.979-4.012c6.392,0,11.498,1.985,15.317,5.955c3.818,3.971,5.728,9.387,5.728,16.251
		c0,2.624-0.236,5.316-0.707,8.075H96.903c-0.135,1.043-0.202,1.984-0.202,2.826c0,5.014,1.152,8.84,3.457,11.48
		c2.304,2.643,5.122,3.963,8.453,3.963c3.129,0,6.208-1.027,9.236-3.08C120.875,63.645,123.23,60.684,124.913,56.814z
		 M98.367,43.541h30.079c0.033-0.941,0.05-1.615,0.05-2.02c0-4.575-1.144-8.082-3.432-10.522c-2.289-2.439-5.232-3.659-8.832-3.659
		c-3.903,0-7.461,1.346-10.674,4.038C102.345,34.07,99.948,38.124,98.367,43.541z"/>
	<path fill="#1DBB99" d="M180.023,55.502l9.135,0.959c-2.287,6.695-5.543,11.666-9.766,14.912
		c-4.223,3.248-9.025,4.871-14.408,4.871c-5.82,0-10.539-1.885-14.156-5.652c-3.618-3.768-5.426-9.033-5.426-15.797
		c0-5.854,1.161-11.607,3.482-17.26s5.644-9.95,9.968-12.895c4.322-2.944,9.26-4.416,14.811-4.416c5.754,0,10.312,1.624,13.678,4.87
		c3.363,3.247,5.047,7.545,5.047,12.895l-8.982,0.605c-0.035-3.398-1.02-6.056-2.953-7.974c-1.936-1.918-4.484-2.877-7.646-2.877
		c-3.668,0-6.848,1.161-9.537,3.482c-2.693,2.321-4.805,5.846-6.334,10.573c-1.531,4.728-2.297,9.278-2.297,13.651
		c0,4.576,1.01,8.008,3.027,10.295c2.02,2.289,4.51,3.432,7.471,3.432c2.959,0,5.795-1.127,8.504-3.381
		C176.348,63.543,178.477,60.111,180.023,55.502z"/>
	<path fill="#1DBB99" d="M231.703,55.502l9.135,0.959c-2.289,6.695-5.545,11.666-9.766,14.912
		c-4.223,3.248-9.025,4.871-14.408,4.871c-5.822,0-10.541-1.885-14.156-5.652c-3.617-3.768-5.426-9.033-5.426-15.797
		c0-5.854,1.16-11.607,3.482-17.26c2.32-5.652,5.643-9.95,9.967-12.895c4.322-2.944,9.262-4.416,14.812-4.416
		c5.754,0,10.312,1.624,13.676,4.87c3.365,3.247,5.047,7.545,5.047,12.895l-8.982,0.605c-0.033-3.398-1.018-6.056-2.953-7.974
		c-1.934-1.918-4.482-2.877-7.645-2.877c-3.668,0-6.848,1.161-9.539,3.482s-4.803,5.846-6.334,10.573
		c-1.531,4.728-2.297,9.278-2.297,13.651c0,4.576,1.01,8.008,3.029,10.295c2.018,2.289,4.508,3.432,7.469,3.432
		s5.795-1.127,8.504-3.381C228.025,63.543,230.154,60.111,231.703,55.502z"/>
	<path fill="#1DBB99" d="M282.523,68.371c-3.162,2.725-6.207,4.719-9.133,5.98c-2.928,1.262-6.057,1.893-9.389,1.893
		c-4.945,0-8.932-1.455-11.961-4.365c-3.027-2.91-4.541-6.637-4.541-11.18c0-2.994,0.682-5.643,2.043-7.948
		c1.363-2.304,3.172-4.155,5.426-5.552c2.254-1.396,5.014-2.396,8.277-3.002c2.051-0.404,5.945-0.724,11.684-0.959
		c5.734-0.235,9.848-0.841,12.338-1.817c0.707-2.489,1.061-4.559,1.061-6.208c0-2.12-0.773-3.785-2.322-4.996
		c-2.119-1.682-5.215-2.523-9.285-2.523c-3.836,0-6.973,0.85-9.412,2.549c-2.439,1.699-4.215,4.113-5.324,7.242l-9.236-0.807
		c1.885-5.316,4.871-9.387,8.959-12.213s9.242-4.239,15.467-4.239c6.629,0,11.877,1.582,15.746,4.744
		c2.961,2.355,4.441,5.417,4.441,9.185c0,2.86-0.42,6.174-1.262,9.942l-2.977,13.324c-0.943,4.238-1.414,7.688-1.414,10.346
		c0,1.682,0.371,4.105,1.111,7.268h-9.236C283.08,73.283,282.727,71.062,282.523,68.371z M285.906,47.881
		c-1.279,0.505-2.65,0.893-4.113,1.16c-1.465,0.271-3.912,0.556-7.344,0.859c-5.316,0.471-9.068,1.068-11.254,1.791
		c-2.188,0.724-3.836,1.876-4.945,3.457c-1.111,1.582-1.666,3.33-1.666,5.248c0,2.559,0.883,4.66,2.65,6.309
		c1.766,1.648,4.279,2.473,7.545,2.473c3.027,0,5.938-0.799,8.73-2.396c2.791-1.598,4.996-3.826,6.611-6.688
		C283.736,57.234,284.998,53.164,285.906,47.881z"/>
</g>
</svg>
